<?xml version="1.0" encoding="utf-8"?>
<!-- Generator: Adobe Illustrator 26.5.0, SVG Export Plug-In . SVG Version: 6.00 Build 0)  -->
<svg version="1.1" id="Layer_1" xmlns="http://www.w3.org/2000/svg" xmlns:xlink="http://www.w3.org/1999/xlink" x="0px" y="0px"
	 viewBox="0 0 504 288" style="enable-background:new 0 0 504 288;" xml:space="preserve">
<style type="text/css">
	.st0{opacity:0.22;}
	.st1{clip-path:url(#SVGID_00000105423194865586194460000013934403860919099272_);fill:#CCCCCC;}
</style>
<g class="st0">
	<defs>
		<rect id="SVGID_1_" class="st0" width="505" height="287.7"/>
	</defs>
	<clipPath id="SVGID_00000031894456029938621850000011033545516625668503_">
		<use xlink:href="#SVGID_1_"  style="overflow:visible;"/>
	</clipPath>
	<path style="clip-path:url(#SVGID_00000031894456029938621850000011033545516625668503_);fill:#CCCCCC;" d="M441.6,134L441.6,134
		l-33.1,44.5l-65.9,22.2l-0.1,0l-33,44.5l-65.9,22.2l-0.1,0l-33,44.5l-44.3,14.9h1.3l43.3-14.6l0.1,0l33-44.5l65.9-22.2l0.1,0
		l33-44.5l65.9-22.2l0.1,0l33-44.5l65.9-22.2l0.1,0l21.7-29.2v-0.9l-22.2,29.8L441.6,134z M433.4,128.4L433.4,128.4l-33.1,44.5
		l-65.9,22.2l-0.1,0l-33,44.5l-65.9,22.2l-0.1,0l-33,44.5l-60.8,20.5h1.3l59.8-20.1l0.1,0l33-44.4l65.9-22.2l0.1,0l33-44.5
		l65.9-22.2l0.1,0l33-44.5l65.9-22.2l0.1,0l30-40.4v-0.9l-30.4,41L433.4,128.4z M466.3,17.3l-33,44.5L367.4,84l-0.1,0l-33,44.5
		l-65.9,22.2l-0.1,0l-33,44.5l-65.9,22.2l-0.1,0l-33,44.5L70.3,284l-0.1,0l-31.7,42.7h0.7l31.5-42.4l65.9-22.2l0.1,0l33-44.5
		l65.9-22.2l0.1,0l33-44.5l65.9-22.2l0.1,0l33-44.5l65.9-22.2l0.1,0l33-44.5l63-21.2V-4L466.3,17.3L466.3,17.3z M474.6,22.9
		l-33,44.5l-65.9,22.2l-0.1,0l-33,44.5l-65.9,22.2l-0.1,0l-33,44.5l-65.9,22.2l-0.1,0l-33,44.5l-65.9,22.2l-0.1,0l-27.6,37.1h0.7
		L79,289.9l65.9-22.2l0.1,0l33-44.5l65.9-22.2l0.1,0l33-44.5l65.9-22.2l0.1,0l33-44.5l65.9-22.2l0.1,0l33-44.5l54.7-18.4V4.3
		L474.6,22.9L474.6,22.9z M515.8,184l-33,44.5l-65.9,22.2l-0.1,0l-33,44.5l-65.9,22.2l-0.1,0l-7,9.4h0.7l6.7-9.1l65.9-22.2l0.1,0
		l33-44.5l65.9-22.2l0.1,0l33-44.5l13.5-4.5v-0.4L515.8,184L515.8,184z M524.1,189.6l-33,44.5l-65.9,22.2l-0.1,0l-33,44.5
		l-65.9,22.2l-0.1,0l-2.8,3.8h0.7l2.6-3.5l65.9-22.2l0.1,0l33-44.5l65.9-22.2l0.1,0l33-44.5l5.2-1.8v-0.4L524.1,189.6L524.1,189.6z
		 M458.1,145.1L458.1,145.1L425,189.6l-65.9,22.2l-0.1,0l-33,44.5l-65.9,22.2l-0.1,0l-33,44.5l-11.3,3.8h1.3l10.3-3.5l0.1,0l33-44.5
		l65.9-22.2l0.1,0l33-44.5l65.9-22.2l0.1,0l33-44.5l65.9-22.2l0.1,0l5.2-7v-0.9l-5.7,7.6L458.1,145.1z M449.9,139.5L449.9,139.5
		L416.8,184l-65.9,22.2l-0.1,0l-33,44.5l-65.9,22.2l-0.1,0l-33,44.4l-27.8,9.4h1.3l26.8-9l0.1,0l33-44.5l65.9-22.2l0.1,0l33-44.5
		l65.9-22.2l0.1,0l33-44.5l65.9-22.2l0.1,0l13.5-18.1v-0.9l-13.9,18.7L449.9,139.5z M507.6,45.1l-33,44.5l-65.9,22.2l-0.1,0
		l-33,44.5l-65.9,22.2l-0.1,0l-33,44.5l-65.9,22.2l-0.1,0l-33,44.5l-65.9,22.2l-0.1,0l-11.1,14.9h0.7l10.9-14.6l65.9-22.2l0.1,0
		l33-44.5l65.9-22.2l0.1,0l33-44.4l65.9-22.2l0.1,0l33-44.5l65.9-22.2l0.1,0l33-44.5l21.7-7.3v-0.4L507.6,45.1L507.6,45.1z
		 M524.1,56.2l-33,44.5l-65.9,22.2l-0.1,0l-33,44.5l-65.9,22.2l-0.1,0L293,234l-65.9,22.2l-0.1,0l-33,44.5l-65.9,22.2l-0.1,0
		l-2.8,3.8h0.7l2.6-3.5l65.9-22.2l0.1,0l33-44.5l65.9-22.2l0.1,0l33-44.5l65.9-22.2l0.1,0l33-44.5l65.9-22.2l0.1,0l33-44.5l5.2-1.8
		v-0.4L524.1,56.2L524.1,56.2z M515.8,50.7l-33,44.5l-65.9,22.2l-0.1,0l-33,44.5L317.9,184l-0.1,0l-33,44.5l-65.9,22.2l-0.1,0
		l-33,44.5l-65.9,22.2l-0.1,0l-7,9.4h0.7l6.7-9.1l65.9-22.2l0.1,0l33-44.5l65.9-22.2l0.1,0l33-44.5l65.9-22.2l0.1,0l33-44.4
		l65.9-22.2l0.1,0l33-44.5l13.5-4.5V46L515.8,50.7L515.8,50.7z M482.8,28.4l-33,44.5l-65.9,22.2l-0.1,0l-33,44.5l-65.9,22.2l-0.1,0
		l-33,44.4l-65.9,22.2l-0.1,0l-33,44.5l-65.9,22.2l-0.1,0l-23.5,31.6H64l23.2-31.3l65.9-22.2l0.1,0l33-44.5l65.9-22.2l0.1,0l33-44.4
		l65.9-22.2l0.1,0l33-44.5l65.9-22.2l0.1,0l33-44.5l46.5-15.6v-0.4L482.8,28.4L482.8,28.4z M458.1,11.7L458.1,11.7L425,56.2
		l-65.9,22.2l-0.1,0l-33,44.5l-65.9,22.2l-0.1,0l-33,44.5l-65.9,22.2l-0.1,0l-33,44.5l-65.9,22.2l-0.1,0l-33,44.5l-11.3,3.8H19
		l10.3-3.5l0.1,0l33-44.5l65.9-22.2l0.1,0l33-44.5l65.9-22.2l0.1,0l33-44.5l65.9-22.2l0.1,0l33-44.5l65.9-22.2l0.1,0l33-44.5
		l65.9-22.2l0.1,0l5.2-7v-0.9l-5.7,7.6L458.1,11.7z M491.1,34l-33,44.5l-65.9,22.2l-0.1,0l-33,44.5l-65.9,22.2l-0.1,0l-33,44.5
		L194.1,234l-0.1,0l-33,44.5l-65.9,22.2l-0.1,0l-19.3,26h0.7L95.5,301l65.9-22.2l0.1,0l33-44.5l65.9-22.2l0.1,0l33-44.4l65.9-22.2
		l0.1,0l33-44.5l65.9-22.2l0.1,0l33-44.5l38.2-12.9V21L491.1,34L491.1,34z M507.6,178.4l-33,44.5l-65.9,22.2l-0.1,0l-33,44.5
		l-65.9,22.2l-0.1,0l-11.1,14.9h0.7l10.9-14.6l65.9-22.2l0.1,0l33-44.5l65.9-22.2l0.1,0l33-44.5l21.7-7.3V171L507.6,178.4
		L507.6,178.4z M515.8-16L449.9,6.2l-0.1,0l-33,44.5l-65.9,22.2l-0.1,0l-33,44.5l-65.9,22.2l-0.1,0l-33,44.5l-65.9,22.2l-0.1,0
		l-33,44.5l-65.9,22.2l-0.1,0l-33,44.5l-27.8,9.4h1.3l26.8-9l0.1,0l33-44.5l65.9-22.2l0.1,0l33-44.5l65.9-22.2l0.1,0l33-44.5
		l65.9-22.2l0.1,0l33-44.5L417.1,51l0.1,0l33-44.5l65.9-22.2l0.1,0l13.5-18.1v-0.9L515.8-16z M499.3,39.5l-33,44.4l-65.9,22.2
		l-0.1,0l-33,44.4l-65.9,22.2l-0.1,0l-33,44.4l-65.9,22.2l-0.1,0l-33,44.5l-65.9,22.2l-0.1,0l-15.2,20.5h0.7l15-20.2l65.9-22.2
		l0.1,0l33-44.5l65.9-22.2l0.1,0l33-44.5l65.9-22.2l0.1,0l33-44.5l65.9-22.2l0.1,0l33-44.5l30-10.1v-0.4L499.3,39.5L499.3,39.5z
		 M482.8,295.1l-23.5,31.6h0.7l23.2-31.3l46.5-15.6v-0.4L482.8,295.1L482.8,295.1z M491.1,300.7l-19.3,26h0.7l19.1-25.7l38.2-12.9
		v-0.4L491.1,300.7L491.1,300.7z M466.3,284l-31.7,42.7h0.7l31.5-42.4l63-21.2v-0.4L466.3,284L466.3,284z M499.3,306.2l-15.2,20.5
		h0.7l15-20.2l30-10.1V296L499.3,306.2L499.3,306.2z M458.1,278.4L458.1,278.4L425,322.9l-11.3,3.8h1.3l10.3-3.5l0.1,0l33-44.5
		l65.9-22.2l0.1,0l5.2-7v-0.9l-5.7,7.6L458.1,278.4z M524.1,322.9l-2.8,3.8h0.7l2.6-3.5l5.2-1.8V321L524.1,322.9L524.1,322.9z
		 M515.8,317.4l-7,9.4h0.7l6.7-9.1l13.5-4.5v-0.4L515.8,317.4L515.8,317.4z M499.3,172.9l-33,44.5l-65.9,22.2l-0.1,0l-33,44.5
		l-65.9,22.2l-0.1,0l-15.2,20.5h0.7l15-20.2l65.9-22.2l0.1,0l33-44.5l65.9-22.2l0.1,0l33-44.5l30-10.1v-0.4L499.3,172.9L499.3,172.9
		z M507.6,311.8l-11.1,14.9h0.7l10.9-14.6l21.7-7.3v-0.4L507.6,311.8L507.6,311.8z M449.9,272.9L449.9,272.9l-33.1,44.5l-27.8,9.4
		h1.3l26.8-9l0.1,0l33-44.5l65.9-22.2l0.1,0l13.5-18.1v-0.9l-13.9,18.7L449.9,272.9z M474.6,156.2l-33,44.5l-65.9,22.2l-0.1,0
		l-33,44.5l-65.9,22.2l-0.1,0L249,326.7h0.7l27.4-36.8l65.9-22.2l0.1,0l33-44.5l65.9-22.2l0.1,0l33-44.5l54.7-18.4v-0.4L474.6,156.2
		L474.6,156.2z M491.1,167.3l-33,44.5L392.1,234l-0.1,0l-33,44.5l-65.9,22.2l-0.1,0l-19.3,26h0.7l19.1-25.7l65.9-22.2l0.1,0l33-44.5
		l65.9-22.2l0.1,0l33-44.5l38.2-12.9v-0.4L491.1,167.3L491.1,167.3z M482.8,161.8l-33,44.5l-65.9,22.2l-0.1,0l-33,44.5l-65.9,22.2
		l-0.1,0l-23.5,31.6h0.7l23.2-31.3l65.9-22.2l0.1,0l33-44.5l65.9-22.2l0.1,0l33-44.5l46.5-15.6V146L482.8,161.8L482.8,161.8z
		 M466.3,150.7l-33,44.5l-65.9,22.2l-0.1,0l-33,44.5L268.4,284l-0.1,0l-31.7,42.7h0.7l31.5-42.4l65.9-22.2l0.1,0l33-44.5l65.9-22.2
		l0.1,0l33-44.5l63-21.2v-0.4L466.3,150.7L466.3,150.7z M441.6,267.3L441.6,267.3l-33.1,44.5l-44.3,14.9h1.3l43.3-14.6l0.1,0
		l33-44.5l65.9-22.2l0.1,0l21.7-29.2v-0.9l-22.2,29.8L441.6,267.3z M433.4,261.8L433.4,261.8l-33.1,44.5l-60.8,20.5h1.3l59.8-20.1
		l0.1,0l33-44.5l65.9-22.2l0.1,0l30-40.4v-0.9l-30.4,41L433.4,261.8z M474.6,289.6L447,326.7h0.7l27.4-36.8l54.7-18.4V271
		L474.6,289.6L474.6,289.6z M12.9,112.1l65.9-22.2l0.1,0l33-44.5l65.9-22.2l0.1,0l33-44.5l65.9-22.2l0.1,0l2.8-3.8h-0.7l-2.6,3.5
		l-65.9,22.2l-0.1,0l-33,44.5l-65.9,22.2l-0.1,0l-33,44.5l-65.9,22.2l-0.1,0l-33,44.5l-5.2,1.8v0.4l5.7-1.9L12.9,112.1z M-3.6,167.6
		l33-44.5L95.4,101l0.1,0l33-44.5l65.9-22.2l0.1,0l33-44.5l65.9-22.2l0.1,0l11.1-14.9h-0.7L293-32.7l-65.9,22.2l-0.1,0L194,34
		l-65.9,22.2l-0.1,0l-33,44.5l-65.9,22.2l-0.1,0l-33,44.5l-21.7,7.3v0.4L-3.6,167.6L-3.6,167.6z M54.1,206.6L54.1,206.6l33.1-44.5
		l65.9-22.2l0.1,0l33-44.5l65.9-22.2l0.1,0l33-44.5l65.9-22.2l0.1,0l33-44.5l27.8-9.4h-1.3l-26.8,9l-0.1,0l-33,44.5l-65.9,22.2
		l-0.1,0l-33,44.5l-65.9,22.2l-0.1,0l-33,44.4l-65.9,22.2l-0.1,0l-33,44.5l-65.9,22.2l-0.1,0l-13.5,18.1v0.9l13.9-18.7L54.1,206.6z
		 M45.9,201L45.9,201L79,156.5l65.9-22.2l0.1,0l33-44.5l65.9-22.2l0.1,0l33-44.5L342.9,1l0.1,0l33-44.5l11.3-3.8H386l-10.3,3.5
		l-0.1,0l-33,44.5l-65.9,22.2l-0.1,0l-33,44.5l-65.9,22.2l-0.1,0l-33,44.4l-65.9,22.2l-0.1,0l-33,44.5l-65.9,22.2l-0.1,0l-5.2,7v0.9
		l5.7-7.6L45.9,201z M-8.7-47.3h-1.3l-10.3,3.5l-0.1,0l-5.2,7v0.9l5.7-7.6L-8.7-47.3z M21.2,184.3l33-44.5l65.9-22.2l0.1,0l33-44.5
		L219.1,51l0.1,0l33-44.5l65.9-22.2l0.1,0l23.5-31.6H341L317.8-16L251.9,6.2l-0.1,0l-33,44.5l-65.9,22.2l-0.1,0l-33,44.5l-65.9,22.2
		l-0.1,0l-33,44.5l-46.5,15.6v0.4L21.2,184.3L21.2,184.3z M12.9,178.7l33-44.5l65.9-22.2l0.1,0l33-44.5l65.9-22.2l0.1,0l33-44.5
		l65.9-22.2l0.1,0l19.3-26h-0.7l-19.1,25.7L243.6,0.6l-0.1,0l-33,44.5l-65.9,22.2l-0.1,0l-33,44.5L45.6,134l-0.1,0l-33,44.5
		l-38.2,12.9v0.4L12.9,178.7L12.9,178.7z M4.7,173.2l33-44.5l65.9-22.2l0.1,0l33-44.5l65.9-22.2l0.1,0l33-44.5l65.9-22.2l0.1,0
		l15.2-20.5h-0.7l-15,20.2L235.4-4.9l-0.1,0l-33,44.5l-65.9,22.2l-0.1,0l-33,44.5l-65.9,22.2l-0.1,0l-33,44.5l-30,10.1v0.4
		L4.7,173.2L4.7,173.2z M-3.6,301l33-44.5l65.9-22.2l0.1,0l33-44.5l65.9-22.2l0.1,0l33-44.5l65.9-22.2l0.1,0l33-44.5l65.9-22.2
		l0.1,0l33-44.5l65.9-22.2l0.1,0l11.1-14.9h-0.7l-10.9,14.6l-65.9,22.2l-0.1,0L392,34l-65.9,22.2l-0.1,0l-33,44.5l-65.9,22.2l-0.1,0
		l-33,44.5l-65.9,22.2l-0.1,0L95,234l-65.9,22.2l-0.1,0l-33,44.5l-21.7,7.3v0.4L-3.6,301L-3.6,301z M-11.8,295.4l33-44.5l65.9-22.2
		l0.1,0l33-44.5l65.9-22.2l0.1,0l33-44.5l65.9-22.2l0.1,0l33-44.5l65.9-22.2l0.1,0l33-44.5l65.9-22.2l0.1,0l7-9.4h-0.7l-6.7,9.1
		l-65.9,22.2l-0.1,0l-33,44.5l-65.9,22.2l-0.1,0l-33,44.5l-65.9,22.2l-0.1,0l-33,44.5L119.9,184l-0.1,0l-33,44.5l-65.9,22.2l-0.1,0
		l-33,44.5l-13.5,4.5v0.4L-11.8,295.4L-11.8,295.4z M12.9,245.4l65.9-22.2l0.1,0l33-44.5l65.9-22.2l0.1,0l33-44.5l65.9-22.2l0.1,0
		l33-44.5l65.9-22.2l0.1,0l33-44.5l65.9-22.2l0.1,0l2.8-3.8h-0.7l-2.6,3.5l-65.9,22.2l-0.1,0l-33,44.5l-65.9,22.2l-0.1,0l-33,44.5
		l-65.9,22.2l-0.1,0l-33,44.4l-65.9,22.2l-0.1,0l-33,44.5l-65.9,22.2l-0.1,0l-33,44.5l-5.2,1.8v0.4l5.7-1.9L12.9,245.4z M62.4,212.1
		L62.4,212.1l33.1-44.5l65.9-22.2l0.1,0l33-44.5l65.9-22.2l0.1,0l33-44.5l65.9-22.2l0.1,0l33-44.5l44.3-14.9h-1.3l-43.3,14.6l-0.1,0
		l-33,44.5L293.1,34l-0.1,0l-33,44.5l-65.9,22.2l-0.1,0l-33,44.5l-65.9,22.2l-0.1,0l-33,44.5L-3.9,234l-0.1,0l-21.7,29.2v0.9
		l22.2-29.8L62.4,212.1z M12.9,312.1l33-44.5l65.9-22.2l0.1,0l33-44.5l65.9-22.2l0.1,0l33-44.5l65.9-22.2l0.1,0l33-44.5l65.9-22.2
		l0.1,0l33-44.5l65.9-22.2l0.1,0l19.3-26h-0.7l-19.1,25.7L441.6,0.6l-0.1,0l-33,44.5l-65.9,22.2l-0.1,0l-33,44.5L243.6,134l-0.1,0
		l-33,44.5l-65.9,22.2l-0.1,0l-33,44.5l-65.9,22.2l-0.1,0l-33,44.5l-38.2,12.9v0.4L12.9,312.1L12.9,312.1z M70.6,217.7L70.6,217.7
		l33.1-44.5l65.9-22.2l0.1,0l33-44.5l65.9-22.2l0.1,0l33-44.5l65.9-22.2l0.1,0l33-44.5l60.8-20.5h-1.3l-59.9,20.2l-0.1,0l-33,44.5
		l-65.9,22.2l-0.1,0l-33,44.5l-65.9,22.2l-0.1,0l-33,44.5l-65.9,22.2l-0.1,0l-33,44.5L4.3,239.5l-0.1,0l-30,40.4v0.9l30.4-41
		L70.6,217.7z M29.4,189.9l33-44.5l65.9-22.2l0.1,0l33-44.5l65.9-22.2l0.1,0l33-44.5l65.9-22.2l0.1,0l27.6-37.1h-0.7L326-10.5
		l-65.9,22.2l-0.1,0l-33,44.5l-65.9,22.2l-0.1,0l-33,44.5l-65.9,22.2l-0.1,0l-33,44.5L-25.7,208v0.4L29.4,189.9L29.4,189.9z
		 M4.7,306.5l33-44.5l65.9-22.2l0.1,0l33-44.5l65.9-22.2l0.1,0l33-44.5l65.9-22.2l0.1,0l33-44.5l65.9-22.2l0.1,0l33-44.5l65.9-22.2
		l0.1,0L515-47.3h-0.7l-15,20.2L433.4-4.9l-0.1,0l-33,44.5l-65.9,22.2l-0.1,0l-33,44.5l-65.9,22.2l-0.1,0l-33,44.5l-65.9,22.2
		l-0.1,0l-33,44.5l-65.9,22.2l-0.1,0l-33,44.5l-30,10.1v0.4L4.7,306.5L4.7,306.5z M-11.8,162.1l33-44.5l65.9-22.2l0.1,0l33-44.5
		l65.9-22.2l0.1,0l33-44.5l65.9-22.2l0.1,0l7-9.4h-0.7l-6.7,9.1l-65.9,22.2l-0.1,0l-33,44.5l-65.9,22.2l-0.1,0l-33,44.5l-65.9,22.2
		l-0.1,0l-33,44.5l-13.5,4.5v0.4L-11.8,162.1L-11.8,162.1z M4.7,39.8l33-44.5l65.9-22.2l0.1,0l15.2-20.5h-0.7l-15,20.2L37.3-4.9
		l-0.1,0l-33,44.5l-30,10.1v0.4L4.7,39.8L4.7,39.8z M21.2,51l33-44.5l65.9-22.2l0.1,0l23.5-31.6H143L119.8-16L53.8,6.2l-0.1,0
		l-33,44.5l-46.5,15.6v0.4L21.2,51L21.2,51z M29.4,56.5l33-44.5l65.9-22.2l0.1,0L156-47.3h-0.7L128-10.5L62.1,11.7l-0.1,0L29,56.2
		l-54.7,18.4v0.4L29.4,56.5L29.4,56.5z M12.9,45.4L46,0.9l65.9-22.2l0.1,0l19.3-26h-0.7l-19.1,25.7L45.6,0.6l-0.1,0l-33,44.5
		L-25.7,58v0.4L12.9,45.4L12.9,45.4z M37.7,62.1l33-44.5l65.9-22.2l0.1,0l31.7-42.7h-0.7L136.3-4.9L70.3,17.3l-0.1,0l-33,44.5
		l-63,21.2v0.4L37.7,62.1L37.7,62.1z M16-47.3h-1.3l-26.8,9l-0.1,0l-13.5,18.1v0.9l13.9-18.7L16-47.3z M65.5-47.3h-1.3L4.3-27.2
		l-0.1,0l-30,40.4v0.9l30.4-41L65.5-47.3z M40.8-47.3h-1.3L-3.9-32.7l-0.1,0L-25.7-3.4v0.9l22.2-29.8L40.8-47.3z M45.9,67.7
		L45.9,67.7L79,23.2L144.9,1l0.1,0l33-44.5l11.3-3.8H188l-10.3,3.5l-0.1,0l-33,44.5L78.6,22.8l-0.1,0l-33,44.5l-65.9,22.2l-0.1,0
		l-5.2,7v0.9l5.7-7.6L45.9,67.7z M-3.6,34.3l33-44.5l65.9-22.2l0.1,0l11.1-14.9h-0.7L95-32.7L29.1-10.5l-0.1,0L-4,34l-21.7,7.3v0.4
		L-3.6,34.3L-3.6,34.3z M70.6,84.3L70.6,84.3l33.1-44.5l65.9-22.2l0.1,0l33-44.5l60.8-20.5h-1.3l-59.8,20.2l-0.1,0l-33,44.5
		l-65.9,22.2l-0.1,0L70.3,84L4.3,106.2l-0.1,0l-30,40.4v0.9l30.4-41L70.6,84.3z M54.1,73.2L54.1,73.2l33.1-44.5l65.9-22.2l0.1,0
		l33-44.5l27.8-9.4h-1.3l-26.8,9l-0.1,0l-33,44.5L86.9,28.4l-0.1,0l-33,44.5l-65.9,22.2l-0.1,0l-13.5,18.1v0.9l13.9-18.7L54.1,73.2z
		 M62.4,78.8L62.4,78.8l33.1-44.5l65.9-22.2l0.1,0l33-44.5l44.3-14.9h-1.3l-43.3,14.6l-0.1,0l-33,44.5L95.1,34L95,34L62,78.4
		l-65.9,22.2l-0.1,0l-21.7,29.2v0.9L-3.6,101L62.4,78.8z M-11.8,28.7l33-44.5l65.9-22.2l0.1,0l7-9.4h-0.7l-6.7,9.1L20.8-16.1l-0.1,0
		l-33,44.5L-25.7,33v0.4L-11.8,28.7L-11.8,28.7z M12.9-21.3l65.9-22.2l0.1,0l2.8-3.8h-0.7l-2.6,3.5L12.6-21.6l-0.1,0l-33,44.5
		l-5.2,1.8v0.4l5.7-1.9L12.9-21.3z M37.7,195.4l33-44.5l65.9-22.2l0.1,0l33-44.5l65.9-22.2l0.1,0l33-44.5l65.9-22.2l0.1,0l31.7-42.7
		h-0.7L334.3-4.9l-65.9,22.2l-0.1,0l-33,44.5L169.4,84l-0.1,0l-33,44.5l-65.9,22.2l-0.1,0l-33,44.5l-63,21.2v0.4L37.7,195.4
		L37.7,195.4z"/>
</g>
</svg>
