<?xml version="1.0" encoding="utf-8"?>
<!-- Generator: Adobe Illustrator 26.3.1, SVG Export Plug-In . SVG Version: 6.00 Build 0)  -->
<svg version="1.1" id="Layer_1" xmlns="http://www.w3.org/2000/svg" xmlns:xlink="http://www.w3.org/1999/xlink" x="0px" y="0px"
	 viewBox="0 0 1000 1000" style="enable-background:new 0 0 1000 1000;" xml:space="preserve">
<style type="text/css">
	.st0{fill:orange;}
</style>
<path class="st0" d="M696.1,182.7c1,45.3-11.9,86.1-40.7,121.4c-11.6,14.3-25,26.3-43,31.8c-33.2,10-69.8-7.6-86.9-41.7
	c-12.6-25.1-15.1-52.1-12.1-79.4c4.3-39.1,18.5-74.5,43.8-104.9c11.9-14.3,26.3-25.4,43.9-32.2c24.8-9.6,50-3.7,67.6,16.2
	c19.4,21.8,26.2,48.1,27.4,76.4C696.2,174.4,696.1,178.6,696.1,182.7z"/>
<path class="st0" d="M471.6,232.4c-0.4,28.3-6.1,54.2-21,78.1c-21.7,34.9-56.9,35.3-85.8,19.5c-29.1-15.9-46.8-42.4-58.3-72.9
	c-16.6-44.1-20.9-88.7-2.9-133.6c5.2-12.9,12.5-24.3,22.5-34C345,71.1,369.5,67,393.3,78.2c18.3,8.6,32.4,22,43.4,38.7
	C460.1,152.1,470.7,191.1,471.6,232.4z"/>
<path class="st0" d="M852.2,330.9c0.8,50.6-19,89.8-56.5,121c-50,41.5-118.2,8.1-126.7-49.8c-9.1-61.7,12.1-113.6,63.3-151.1
	c18-13.2,38.4-20.3,61.2-15.9c19.8,3.8,34,15.4,44,32.6C849.3,287.7,852.9,309.6,852.2,330.9z"/>
<path class="st0" d="M291.9,388.8c0.5,9.2-0.3,20.5-3.4,31.6c-10.8,38.4-43.1,54.9-83.4,41.7c-31.9-10.4-55.5-31.7-72.6-60
	c-22.6-37.4-32-77.5-20.7-120.9c2.1-8,6-15.4,10.6-22.3c17.9-26.8,46.4-36.4,76.5-25c40.5,15.4,64.7,46.5,80.6,85.2
	C288.5,340.7,292.2,363.3,291.9,388.8z"/>
<circle class="st0" cx="488.6" cy="647.9" r="271"/>
</svg>
