<?xml version="1.0" encoding="utf-8"?>
<!-- Generator: Adobe Illustrator 26.3.1, SVG Export Plug-In . SVG Version: 6.00 Build 0)  -->
<svg version="1.1" id="Layer_1" xmlns="http://www.w3.org/2000/svg" xmlns:xlink="http://www.w3.org/1999/xlink" x="0px" y="0px"
	 viewBox="0 0 1000 1000" style="enable-background:new 0 0 1000 1000;" xml:space="preserve">
<style type="text/css">
	.st0{fill:#0D0909;}
	.st1{fill:#0E0909;}
</style>
<path class="st0" d="M407.3,939.5c-13.8,0.2-27.1-2.5-39.5-8.3c-17.7-8.4-35.5-9.6-54.1-3.6c-7.5,2.4-15.2,4-22.8,5.9
	c-25,6.4-50.3,8.7-75.5,2.3c-17-4.4-30.9-13.7-35.7-32.3c-2.7-10.4,0.1-20.3,3-30.1c8.5-28.7,24.3-53.5,42.7-76.7
	c16.4-20.7,34.6-39.6,57.7-53.2c6.5-3.8,13.4-6.9,20.4-9.7c15.6-6.2,30.8-4.4,45.8,2.3c13.3,5.9,25,14.2,35.6,24.1
	c33.1,30.8,57.5,67.3,71.4,110.5c3.5,10.9,5.5,22.2,2.8,33.6c-4.4,18.4-22.9,33.6-41.7,34.6C414,939.1,410.7,939.3,407.3,939.5z"/>
<path class="st0" d="M751.4,482c-13.1,0.6-25.5-2.6-37.6-7.3c-5.9-2.3-11.8-4.6-17.9-6.6c-13-4.3-25.5-0.6-38,2.4
	c-14.3,3.4-28.3,8.2-42.9,10c-18,2.2-36.1,3-53.9-1.5c-9.1-2.3-17.3-6.5-24.3-12.6c-14.2-12.5-15.5-28.2-10.8-45.5
	c6.2-23.1,17.2-43.8,30.7-63.3c17.1-24.8,36.5-47.6,61.4-65.1c7.9-5.6,16.6-10,25.4-14c17.4-7.9,34.3-7,51.3,0.9
	c18.7,8.7,34.2,21.7,48,36.7c25.9,28.1,46.2,59.8,57.8,96.5c3.5,11.1,5.9,22.5,3.2,34.1c-4.5,19.4-22.8,33.9-43.9,35.3
	C757.1,482.1,754.3,482,751.4,482z"/>
<path class="st1" d="M460.5,594.8c0.7,32.1-9.2,60.3-31.2,83.9c-23.8,25.5-54.1,19.6-72-1c-6.1-7.1-9.8-15.4-12.4-24.4
	c-10.9-38.9,6-92.5,37.1-117c8.7-6.8,18.3-12.2,29.5-12.7c16.3-0.8,28,7.3,36.8,20.4c9,13.6,12.1,28.8,12.2,44.9
	C460.5,590.8,460.5,592.8,460.5,594.8z"/>
<path class="st1" d="M805.2,137.2c0.6,29.4-7.7,55.8-26.3,78.7c-7.5,9.2-16.2,17.1-27.9,20.6c-21.5,6.5-45.2-4.9-56.3-27
	c-8.2-16.3-9.8-33.7-7.9-51.4c2.8-25.3,12-48.2,28.4-68c7.7-9.3,17.1-16.5,28.4-20.9c16.1-6.2,32.4-2.4,43.8,10.5
	c12.6,14.1,17,31.1,17.7,49.5C805.3,131.8,805.2,134.5,805.2,137.2z"/>
<path class="st1" d="M670.4,163c-0.3,18.3-4,35.2-13.6,50.6c-14.1,22.6-36.8,22.9-55.6,12.6c-18.9-10.3-30.3-27.5-37.8-47.2
	c-10.8-28.6-13.5-57.5-1.9-86.6c3.3-8.3,8.1-15.7,14.6-22c12.2-11.9,28-14.5,43.5-7.3c11.9,5.5,21,14.3,28.1,25.1
	C663,111,669.8,136.3,670.4,163z"/>
<path class="st1" d="M325.7,621.6c-0.1,16.7-3.8,33.5-13.3,49c-14.1,22.9-37.2,22.6-56,12.8c-9.2-4.8-16.8-11.9-22.6-20.4
	c-23.7-34.4-31.3-71.5-17.4-111.8c3-8.8,8-16.5,14.7-23.1c12.6-12.6,29.1-15.3,45.2-7.3c11.7,5.8,20.7,14.7,27.7,25.6
	C318.5,568.9,325.3,593.7,325.7,621.6z"/>
<path class="st1" d="M886.3,272.9c0.5,32.8-12.3,58.2-36.6,78.4c-32.4,26.9-76.6,5.2-82.1-32.3c-5.9-40,7.8-73.6,41-97.9
	c11.7-8.6,24.9-13.2,39.7-10.3c12.8,2.5,22,10,28.5,21.1C884.4,244.8,886.7,259,886.3,272.9z"/>
<path class="st1" d="M541.6,729.3c0.8,32-11.2,56.7-33.9,77c-33.3,29.8-77.1,8.4-84.6-28.3c-8-39.1,11.9-86.5,50-105.2
	c9.3-4.6,18.8-6.9,29.1-5.1c21.8,4,31.6,19.6,37.1,39C541.6,714.6,541.9,722.6,541.6,729.3z"/>
<path class="st1" d="M576.8,285c0.3,6-0.2,13.3-2.2,20.5c-7,24.9-27.9,35.6-54,27c-20.7-6.7-36-20.6-47-38.9
	c-14.7-24.2-20.7-50.2-13.4-78.3c1.4-5.2,3.9-10,6.9-14.4c11.6-17.3,30.1-23.6,49.6-16.2c26.2,10,41.9,30.2,52.3,55.2
	C574.6,253.9,577,268.5,576.8,285z"/>
<path class="st1" d="M232,741.2c0.2,6.6,0.1,13.8-1.8,20.9c-6.7,24.7-26.6,35.6-52.1,28.4c-18.3-5.2-32.4-16.5-43.6-31.5
	c-17.6-23.6-25.5-50.1-20.5-79.4c3.3-19.6,13.8-34.4,34.2-39.8c8.7-2.3,17.3-0.6,25.5,2.8c25.3,10.5,40.5,30.4,50.7,54.8
	c2.8,6.8,4.6,14,6,21.2C231.8,725.8,232.2,733.2,232,741.2z"/>
</svg>
