<?xml version="1.0" encoding="utf-8"?>
<!-- Generator: Adobe Illustrator 26.3.1, SVG Export Plug-In . SVG Version: 6.00 Build 0)  -->
<svg version="1.1" id="Layer_1" xmlns="http://www.w3.org/2000/svg" xmlns:xlink="http://www.w3.org/1999/xlink" x="0px" y="0px"
	 viewBox="0 0 1000 1000" style="enable-background:new 0 0 1000 1000;" xml:space="preserve">
<style type="text/css">
	.st0{fill:#0D0909;}
	.st1{fill:#0E0909;}
</style>
<g>
	<path class="st0" d="M976,324.1c1.3,30.7-6,59.7-17,88.2c-5.5,13.9-10.6,27.9-15.3,41.8c-10,30.3-1.5,59.7,5.5,89.1
		c8,33.6,19.2,66.3,23.4,100.6c5.1,42.2,7.1,84.5-3.3,126.3c-5.3,21.2-15,40.7-29.4,56.8c-29.4,33.4-66.1,36.3-106.6,25.2
		c-54.2-14.6-102.6-40.5-148.4-71.9c-58.2-40.2-111.4-85.6-152.6-143.9c-13-18.6-23.4-38.7-32.9-59.5c-18.6-40.7-16.6-80.5,2-120.3
		c20.3-43.8,50.9-80,86-112.5c65.9-60.8,140.2-108.1,226.2-135.5c25.9-8.2,52.8-13.7,80-7.5c45.6,10.6,79.4,53.3,82.7,102.8
		C976.5,310.8,976,317.4,976,324.1z"/>
	<path class="st1" d="M225.1,236.7c56.2-1.3,106.8,14.8,150.6,50.4c17.7,14.4,32.7,31,39.4,53.3c12.4,41.1-9.5,86.7-51.7,107.9
		c-31.2,15.7-64.6,18.8-98.4,15c-48.4-5.3-92.4-23-130.2-54.4c-17.7-14.8-31.4-32.7-40-54.4c-11.9-30.7-4.6-61.9,20.1-83.8
		c27-24.1,59.7-32.5,94.9-34.1C214.7,236.5,220,236.7,225.1,236.7z"/>
	<path class="st1" d="M230.8,565.1c35.2,0.4,67.2,7.5,96.8,26.1c43.3,27,43.8,70.5,24.1,106.4c-19.7,36.3-52.6,58.2-90.4,72.3
		c-54.8,20.6-110.1,25.9-165.8,3.5c-15.9-6.4-30.1-15.5-42.2-27.9c-22.8-23.4-27.9-53.7-13.9-83.4c10.6-22.8,27.4-40.2,48-54
		C131.1,579.5,179.5,566.2,230.8,565.1z"/>
	<path class="st1" d="M460.1,25.3c62.8-1.1,111.4,23.4,150.1,70.1c51.5,61.9,10,146.6-61.9,157.2c-76.5,11.3-140.9-15-187.5-78.5
		c-16.4-22.3-25.2-47.8-19.7-76.1c4.6-24.5,19-42.2,40.5-54.6C406.4,28.9,433.6,24.5,460.1,25.3z"/>
	<path class="st1" d="M516.3,743.5c11.5-0.7,25.4,0.2,39.1,4.2c47.8,13.5,68.1,53.5,51.7,103.5c-12.8,39.6-39.4,68.8-74.3,90
		c-46.4,28.1-96.2,39.6-149.9,25.6c-10-2.7-19-7.3-27.6-13c-33.2-22.1-45.1-57.5-31-94.9c19-50.2,57.7-80.3,105.7-100.2
		C456.6,747.7,484.7,743.1,516.3,743.5z"/>
</g>
</svg>
