<?xml version="1.0" encoding="utf-8"?>
<!-- Generator: Adobe Illustrator 26.3.1, SVG Export Plug-In . SVG Version: 6.00 Build 0)  -->
<svg version="1.1" id="Layer_1" xmlns="http://www.w3.org/2000/svg" xmlns:xlink="http://www.w3.org/1999/xlink" x="0px" y="0px"
	 viewBox="0 0 1000 1000" style="enable-background:new 0 0 1000 1000;" xml:space="preserve">
<style type="text/css">
	.st0{fill:#0D0909;}
	.st1{fill:#0E0909;}
</style>
<g>
	<path class="st0" d="M32.5,674c-1.3-30.7,6-59.7,17-88.2c5.5-13.9,10.6-27.9,15.3-41.8c10-30.3,1.5-59.7-5.5-89.1
		c-8-33.6-19.2-66.3-23.4-100.6c-5.1-42.2-7.1-84.5,3.3-126.3c5.3-21.2,15-40.7,29.4-56.8c29.4-33.4,66.1-36.3,106.6-25.2
		c54.2,14.6,102.6,40.5,148.4,71.9C381.6,258,434.9,303.4,476,361.7c13,18.6,23.4,38.7,32.9,59.5c18.6,40.7,16.6,80.5-2,120.3
		c-20.3,43.8-50.9,80-86,112.5c-65.9,60.8-140.2,108.1-226.2,135.5c-25.9,8.2-52.8,13.7-80,7.5C69.2,786.5,35.3,743.8,32,694.3
		C32,687.2,32.5,680.6,32.5,674z"/>
	<path class="st1" d="M783.4,761.3c-56.2,1.3-106.8-14.8-150.6-50.4c-17.7-14.4-32.7-31-39.4-53.3c-12.4-41.1,9.5-86.7,51.7-107.9
		c31.2-15.7,64.6-18.8,98.4-15c48.4,5.3,92.4,23,130.2,54.4c17.7,14.8,31.4,32.7,40,54.4c11.9,30.7,4.6,61.9-20.1,83.8
		c-27,24.1-59.7,32.5-94.9,34.1C793.8,761.5,788.5,761.3,783.4,761.3z"/>
	<path class="st1" d="M777.6,432.9c-35.2-0.4-67.2-7.5-96.8-26.1c-43.3-27-43.8-70.5-24.1-106.4c19.7-36.3,52.6-58.2,90.4-72.3
		c54.8-20.6,110.1-25.9,165.8-3.5c15.9,6.4,30.1,15.5,42.2,27.9c22.8,23.4,27.9,53.7,13.9,83.4c-10.6,22.8-27.4,40.2-48,54
		C877.4,418.6,828.9,431.8,777.6,432.9z"/>
	<path class="st1" d="M548.3,972.7c-62.8,1.1-111.4-23.4-150.1-70.1c-51.5-61.9-10-146.6,61.9-157.2c76.5-11.3,140.9,15,187.5,78.5
		c16.4,22.3,25.2,47.8,19.7,76.1c-4.6,24.5-19,42.2-40.5,54.6C602.1,969.1,574.9,973.6,548.3,972.7z"/>
	<path class="st1" d="M492.2,254.5c-11.5,0.7-25.4-0.2-39.1-4.2c-47.8-13.5-68.1-53.5-51.7-103.5c12.8-39.6,39.4-68.8,74.3-90
		c46.4-28.1,96.2-39.6,149.9-25.6c10,2.7,19,7.3,27.6,13c33.2,22.1,45.1,57.5,31,94.9c-19,50.2-57.7,80.3-105.7,100.2
		C551.9,250.3,523.8,254.9,492.2,254.5z"/>
</g>
</svg>
