<?xml version="1.0" encoding="utf-8"?>
<!-- Generator: Adobe Illustrator 26.5.0, SVG Export Plug-In . SVG Version: 6.00 Build 0)  -->
<svg version="1.1" id="Layer_1" xmlns="http://www.w3.org/2000/svg" xmlns:xlink="http://www.w3.org/1999/xlink" x="0px" y="0px"
	 viewBox="0 0 3004.9 2371.2" style="enable-background:new 0 0 3004.9 2371.2;" xml:space="preserve">
<style type="text/css">
	.st0{opacity:0.2;}
	.st1{fill:#000;}
	.st2{fill:#9E9E9E;}
	.st3{fill:rgb(255,8,74);}
	.st4{opacity:0.15;}
	.st5{fill:#686868;}
	.st6{fill:#FFFFFF;}
	.st7{fill:#3A3A3A;}
	.st8{fill:#E8E8E8;}
	.st9{opacity:0.5;}
	.st10{fill:#F27E80;}
	.st11{fill:#FF5C64;}
	.st12{fill:rgb(255,8,74);}
	.st13{fill:rgb(255,8,74);}
	.st14{fill:rgb(255,8,74);}
	.st15{opacity:0.3;}
</style>
<g>
	<g class="st0">
		<ellipse class="st1" cx="1735.3" cy="2127.9" rx="1139.6" ry="116"/>
	</g>
	<g>
		<path class="st2" d="M2588.8,2144.3c-363.7,0-953,0-1089.7,0c-303.5,0-462.7-154.1-526-350c-66.4-205.6,102.2-519.7,102.2-519.7
			s407.2,15.1,722.5,38.4c249.4,18.4,312.4,44.4,404.4,129.1c145.1,133.6,142.4,333.4,142.4,333.4s171.2-1.1,328.2,42.2
			C2857.8,1868.8,2896.5,2144.3,2588.8,2144.3z"/>
	</g>
	<g>
		<path class="st3" d="M2588.8,2144.3H1499.1c-303.5,0-462.7-154.1-526-350c-55.6-172,53.3-419.8,90.4-496.3
			c7.3-15,11.8-23.4,11.8-23.4s355.8,13.2,659.8,33.9c21.2,1.4,42.1,2.9,62.7,4.4c249.4,18.4,312.3,44.4,404.4,129.2
			c145.1,133.6,142.4,333.4,142.4,333.4s77.9-0.5,176.9,12.5c47.7,6.2,100.2,15.6,151.3,29.7
			C2857.8,1868.8,2896.5,2144.3,2588.8,2144.3z"/>
	</g>
	<g class="st4">
		<path class="st1" d="M2215.3,2144.3h-716.2c-303.5,0-462.7-154.1-526-350c-55.6-172,53.3-419.8,90.4-496.3
			c7.3-15,11.8-23.4,11.8-23.4s355.8,13.2,659.8,33.9c31.8,49.9,58.4,107,43.2,142.6c-45.9,107.9-411.8,200.3-462.8,333.2
			c-43.4,113.1,48.5,192.1,148.9,210.3c302.4,54.9,445.5-330.8,554.2-236.8C2081.5,1812.3,2160.1,1997.6,2215.3,2144.3z"/>
	</g>
	<g>
		<path class="st5" d="M2120.3,2144.3h-621.2c-303.5,0-462.7-154.1-526-350c-55.6-172,53.3-419.8,90.4-496.3
			c276,32.5,557.8,143.4,567.7,200.1c3.8,21.9-4.1,46.9-15.1,75.6c-121.3,63.6-269.5,129.6-300.6,210.7
			c-43.4,113.1,48.5,192.1,148.9,210.3c90.3,16.4,166.5-6.5,231.7-44.2c144.4,93.7,374.2,103.4,374.2,103.4L2120.3,2144.3z"/>
	</g>
	<g>
		<path class="st6" d="M2588.8,2144.3h-90.1c38.1-56.6,83.4-171,22.7-356.3c47.7,6.2,100.2,15.6,151.3,29.7
			C2857.8,1868.8,2896.5,2144.3,2588.8,2144.3z"/>
	</g>
	<g class="st4">
		<path class="st1" d="M2588.8,2144.3h-90.1c38.1-56.6,83.4-171,22.7-356.3c17.1,2.2,34.8,4.8,52.8,8
			c53.5,37.5,136.2,92.4,146.9,209.9c2.3,25.8,36,34.6,50.1,13c14.7-22.5,27.2-54.1,28.6-97.5
			C2846.4,2018.8,2796.6,2144.3,2588.8,2144.3z"/>
	</g>
	<g>
		<path class="st1" d="M2690.6,2074.9c3.8,0.6,8.5,1.2,12.9,1.3c4.5,0.2,8.9,0.2,13.3,0c8.8-0.5,17.5-2,25.7-4.4
			c4.1-1.1,8-2.8,11.9-4.3c1.9-0.9,3.7-1.9,5.6-2.8c1.9-0.9,3.6-1.9,5.3-3.1c7.1-4.1,13-9.8,18.5-15.4l0.7-0.8
			c7.2-7.2,18.8-7.2,26-0.1c7.2,7.2,7.2,18.8,0.1,26c-0.6,0.6-1.4,1.3-2.1,1.8c-9.1,6.8-18.5,13-29,17.1c-2.5,1.2-5.1,2.2-7.8,2.9
			c-2.6,0.8-5.2,1.7-7.9,2.4c-5.3,1.2-10.6,2.5-16,3c-10.7,1.4-21.3,1.5-31.7,0.4c-5.2-0.6-10.3-1.3-15.4-2.4
			c-5.2-1.1-9.9-2.3-15.4-4.2c-4.8-1.6-7.3-6.8-5.7-11.6c1.5-4.3,5.8-6.8,10.1-6.1L2690.6,2074.9z"/>
	</g>
	<g>
		<path class="st1" d="M2720.3,1933.4c8.5-0.6,16.3-0.7,24.5-0.5c8.1,0.3,16.3,1,24.5,2.1c8.2,1.2,16.5,3,24.8,5.5
			c8.3,2.6,16.7,6.1,24.9,10.7l0.1,0.1c8.8,5,11.9,16.3,6.9,25.1s-16.3,11.9-25.1,6.9c-1.1-0.6-2.1-1.4-3-2.1
			c-4.6-4-9.9-7.7-15.9-11c-6-3.2-12.5-6-19.2-8.4c-6.8-2.4-13.8-4.4-21-6.1c-7.1-1.7-14.7-3.1-21.6-3.9l-0.5-0.1
			c-5-0.6-8.6-5.2-8-10.2C2712.4,1937,2716,1933.7,2720.3,1933.4z"/>
	</g>
	<g>
		<path class="st6" d="M2120.3,2144.3h-621.2c-303.5,0-462.7-154.1-526-350c-55.6-172,53.3-419.8,90.4-496.3
			c276,32.5,557.8,143.4,567.7,200.1c12.9,73.7-107,182.6-31.9,347.3c87.8,192.4,470.9,208.5,470.9,208.5L2120.3,2144.3z"/>
	</g>
	<g class="st4">
		<path class="st1" d="M2120.3,2144.3h-621.2c-303.5,0-462.7-154.1-526-350c-55.6-172,53.3-419.8,90.4-496.3
			c276,32.5,557.8,143.4,567.7,200.1c3.8,21.9-4.1,46.9-15.1,75.6c-121.3,63.6-269.5,129.6-300.6,210.7
			c-43.4,113.1,48.5,192.1,148.9,210.3c90.3,16.4,166.5-6.5,231.7-44.2c144.4,93.7,374.2,103.4,374.2,103.4L2120.3,2144.3z"/>
	</g>
	<g>
		<path class="st7" d="M2588.8,2162.6H1499.1c-146.7,0-269.1-35.4-363.9-105.1c-83.8-61.7-144.2-148.3-179.5-257.6
			c-68.1-210.6,96.5-520.9,103.5-534l5.4-10l11.4,0.4c4.1,0.1,411.1,15.3,723.1,38.4c255,18.9,321,47,415.4,133.9
			c125,115.2,144.7,274.8,147.8,328.7c48.3,0.9,185.5,6.9,315.3,42.7c99.4,27.4,167.6,120,155.3,210.7
			C2828,2046.4,2796.1,2162.6,2588.8,2162.6z M1086.3,1293.4c-27.4,54.7-152.5,319.6-95.8,495.3c49.7,153.9,178.3,337.3,508.6,337.3
			h1089.7c119.9,0,197.6-44.9,207.8-120.2c8.7-63.9-37.1-145.2-128.8-170.5c-152.6-42.1-321.5-41.6-323.2-41.5l-18.7,0.1l0.3-18.7
			c0-1.9,0.6-193.4-136.5-319.7c-88.5-81.5-147.4-106.2-393.3-124.4C1514.7,1310.4,1155.1,1296,1086.3,1293.4z"/>
	</g>
	<g>
		<path class="st1" d="M2588.8,2162.6H1499.1c-146.7,0-269.1-35.4-363.9-105.1c-83.8-61.7-144.2-148.3-179.5-257.6
			c-68.1-210.6,96.5-520.9,103.5-534l5.4-10l11.4,0.4c4.1,0.1,411.1,15.3,723.1,38.4c255,18.9,321,47,415.4,133.9
			c125,115.2,144.7,274.8,147.8,328.7c48.3,0.9,185.5,6.9,315.3,42.7c99.4,27.4,167.6,120,155.3,210.7
			C2828,2046.4,2796.1,2162.6,2588.8,2162.6z M1086.3,1293.4c-27.4,54.7-152.5,319.6-95.8,495.3c49.7,153.9,178.3,337.3,508.6,337.3
			h1089.7c119.9,0,197.6-44.9,207.8-120.2c8.7-63.9-37.1-145.2-128.8-170.5c-152.6-42.1-321.5-41.6-323.2-41.5l-18.7,0.1l0.3-18.7
			c0-1.9,0.6-193.4-136.5-319.7c-88.5-81.5-147.4-106.2-393.3-124.4C1514.7,1310.4,1155.1,1296,1086.3,1293.4z"/>
	</g>
	<g>
		<path class="st3" d="M2872.8,932.9c-0.4,2.8-0.8,5.6-1.2,8.4c-1.3,8-2.8,15.6-4.7,23c-43.1,166-247.3,145.9-251.2-37.8
			c-2.7-130.7-63.2-172.3-119.9-164.3c-8.8,1.2-17.5,3.7-25.8,7.1c-18.8,7.7-35.9,20.7-49,37.2c-11,13.9-19,30.4-22.5,48.3
			c-6.6,34.1-3.9,68.3,5.4,102.4c19.4,72,68.1,144,120.7,215.5c15,20.5,30.4,40.8,45.5,61.2c17.2,23.1,30.8,46.7,41.2,70.5
			c17.7,40.7,26.1,82,26.2,122.2c0,35.3-6.2,69.6-18.1,101.8c-56.9,154.7-242.4,260.2-471,179.7l24.2-200.5
			c45.1,30.3,90.7,41.3,131,39.8c4.7-0.1,9.4-0.5,13.9-1h0c1.6-0.2,3.2-0.4,4.7-0.6c60.2-8.1,105.7-44,115.8-81.2
			c32.1-117.4-131.4-318.2-183.5-431.1c-96.9-210.3-16.7-406.9,155.6-474.7c23.5-9.2,48.7-16.1,75.3-20.3
			c14.4-2.3,29.2-3.7,44.5-4.3c11.1-0.5,22-0.5,32.5,0.1C2791.9,545.6,2891.1,782.3,2872.8,932.9z"/>
	</g>
	<g class="st4">
		<path class="st1" d="M2619.2,1528.5c-56.9,154.7-242.4,260.2-471,179.7l24.2-200.5c45.1,30.3,90.7,41.3,131,39.8
			C2359.8,1627.8,2535.2,1664.5,2619.2,1528.5z"/>
	</g>
	<g class="st4">
		<path class="st1" d="M2327.5,909.1c35.4,130.9,147.6,226.6,197,263.6c-52.6-71.5-101.2-143.5-120.6-215.5
			c-9.2-34.2-11.9-68.3-5.3-102.4c3.5-18,11.5-34.4,22.5-48.4c18.8-23.9,46.4-40.3,74.8-44.3c56.7-8,117.1,33.6,119.8,164.3
			c3.9,183.7,208.1,203.8,251.2,37.8c1.9-7.4,3.4-15.1,4.7-23c-30.9,33.5-112,96.2-171.8,50.1c-84.1-64.8-12.8-212-122.1-290.7
			C2494.4,640.7,2281.6,739.4,2327.5,909.1z"/>
	</g>
	<g>
		<path class="st5" d="M2435.7,708.2c2.1,1.5,23.7-8.5,23.5-5.9c-0.7,11.3-1.5,34.1,10.8,67c0.1-0.1,0.2-0.1,0.4-0.1
			c1.6-0.7,3.2-1.3,4.9-1.9c1.4-0.5,2.9-1,4.3-1.4c1.1-0.3,2.3-0.7,3.5-1c1.1-0.3,2.2-0.6,3.3-0.8c3.1-0.8,6.3-1.3,9.4-1.8
			c56.7-8,117.1,33.6,119.8,164.3c3.9,183.7,208.1,203.8,251.2,37.8c1.9-7.4,3.4-15,4.7-23c-30.9,33.5-112,96.1-171.8,50.1
			c-84.1-64.9-12.8-212-122.1-290.7c-34.8-25-92-22.4-143.7,1.5C2433.8,705.1,2434.3,707.2,2435.7,708.2z"/>
	</g>
	<g>
		<path class="st6" d="M2470,769.2c8.4-3.4,17.1-5.9,25.9-7.1c56.7-8,117.1,33.6,119.8,164.3c3.9,183.7,208.1,203.8,251.2,37.8
			c1.9-7.4,3.4-15,4.7-23c0.4-2.8,0.8-5.6,1.2-8.4c18.3-150.6-80.9-387.3-310.4-398.6c-10.5-0.6-21.4-0.6-32.5-0.1
			c-15.2,0.7-30.1,2.1-44.4,4.4c-12.8,11.7-42.6,53.8-45.9,92.7c-0.4,4.8,21.1-8.4,20.2-3.2c-3.1,17.5-33.1,73.6-24.1,80.2
			c2.1,1.5,23.7-8.5,23.5-6C2458.5,713.6,2457.6,736.4,2470,769.2z"/>
	</g>
	<g class="st4">
		<path class="st1" d="M2435.7,708.2c2.1,1.5,23.7-8.5,23.5-5.9c-0.7,11.3-1.5,34.1,10.8,67c0.1-0.1,0.2-0.1,0.4-0.1
			c1.6-0.7,3.2-1.3,4.9-1.9c1.4-0.5,2.9-1,4.3-1.4c1.1-0.3,2.3-0.7,3.5-1c1.1-0.3,2.2-0.6,3.3-0.8c3.1-0.8,6.3-1.3,9.4-1.8
			c56.7-8,117.1,33.6,119.8,164.3c3.9,183.7,208.1,203.8,251.2,37.8c1.9-7.4,3.4-15,4.7-23c-30.9,33.5-112,96.1-171.8,50.1
			c-84.1-64.9-12.8-212-122.1-290.7c-34.8-25-92-22.4-143.7,1.5C2433.8,705.1,2434.3,707.2,2435.7,708.2z"/>
	</g>
	<g>
		<path class="st1" d="M2302.6,1754.1c-52.1,0-106.3-9.6-160.4-28.7c-9.5-3.4-14.5-13.8-11.2-23.3c3.4-9.5,13.8-14.5,23.3-11.2
			c162.6,57.3,323.4,18.6,409.8-98.6c76.6-103.8,73.2-237-8.8-347.4c-5.7-7.7-11.4-15.3-17.1-23c-89.6-120-182.2-244.1-157.7-370.6
			c12.4-63.9,75.4-113.4,137.8-108c26.3,2.2,112.3,22,115.7,182.8c1.9,89.6,52.8,127.3,95.8,132.4c45.2,5.3,99.7-23.2,119.4-98.8
			c20-76.9,0.4-204.1-75.6-298.3c-42.4-52.5-119-114.1-242.9-108.9c-110.6,4.6-203.9,56.1-255.9,141.3
			c-56.7,92.9-58,213.9-3.6,332.1c14.4,31.4,38.5,70.8,63.9,112.7c68.3,112.3,145.6,239.5,120.7,330.9c-9.6,35-43.3,67.1-88.2,83.8
			c-65.4,24.4-140.2,13.3-205.3-30.4c-8.4-5.6-10.6-17-5-25.4c5.6-8.4,17-10.6,25.4-5c55.2,37,117.9,46.7,172.1,26.5
			c33.5-12.5,59.3-35.7,65.7-59.2c20.8-76.2-55.4-201.5-116.7-302.2c-26-42.7-50.5-83.1-65.8-116.4
			c-59.7-129.5-57.6-263.1,5.6-366.5c58.5-95.7,162.6-153.6,285.6-158.8c139.2-5.9,225.2,63.4,272.9,122.5
			c75,92.9,109,228.8,82.6,330.5c-25.2,96.9-98,133.1-159,126c-62.2-7.3-125.9-62-128.1-167.9c-1.9-87.9-32.6-142.9-82.2-147.1
			c-43.8-3.8-89.9,33-98.7,78.5c-21.4,110.6,66.3,228.1,151.1,341.8c5.7,7.7,11.5,15.4,17.2,23.1c90.6,122,94,275.5,8.9,391
			c-44.9,60.9-108.8,104.4-184.7,125.8C2374.9,1749.3,2339.3,1754.1,2302.6,1754.1z"/>
	</g>
	<g>
		<path class="st3" d="M2633.9,2120.1c-53.2,46.5-150.9,8.1-223.6-25c-0.7,0.4-1.5,0.9-2.2,1.3c-77.8,45.2-215,71.8-311,35
			c-215.5-82.6-138.1-389-90-439.1l28.6-265.5l8.5-78.7c341.8,102.1,323.3,437.8,323.3,437.8s7.2-1.8,19.7-3.2
			c35.4-4.2,113.6-5.5,191.8,45.2c36.5,23.6,61.7,50.4,78.3,78.2v0C2707.3,1990.2,2677,2082.5,2633.9,2120.1z"/>
	</g>
	<g class="st4">
		<path class="st1" d="M2633.9,2120.1c-53.2,46.5-150.9,8.1-223.6-25c-0.7,0.4-1.5,0.9-2.2,1.3c-77.8,45.2-215,71.8-311,35
			c-215.5-82.6-138.1-389-90-439.1l28.6-265.5l16.2-20.2c0,0,55.3,77.7,34.2,250.2c-4.7,38.1-69.7,126.8-77.8,173.9
			c-42.5,247.9,184.7,254.1,267.4,242.9c103.3-14,185.4-116.6,185.4-116.6s5.1,62.4,42.2,102.6c47.3,51.2,187.7-3.6,153.9-153.5
			C2707.3,1990.2,2677,2082.5,2633.9,2120.1z"/>
	</g>
	<g>
		<path class="st8" d="M2633.9,2120.1c-53.2,46.5-150.9,8.1-223.6-25c-0.7,0.4-1.5,0.9-2.2,1.3c18.8-27.9,48-78.9,54-132.3
			c2.5,17.4,11.8,63.6,41.3,95.6c47.3,51.2,187.7-3.6,153.9-153.5c1.1,1.9,2.2,3.9,3.3,5.8c2.1,3.9,4.1,7.8,5.9,11.7
			c0.9,1.9,1.7,3.8,2.6,5.8c0,0,0,0,0,0.1c0.8,1.9,1.6,3.9,2.3,5.8c0.8,2,1.5,3.9,2.1,5.9c0,0,0,0,0,0.1c0.7,1.9,1.3,3.9,1.9,5.8
			c0.6,1.9,1.1,3.8,1.6,5.7c0,0.1,0,0.2,0.1,0.3c0.5,1.9,1,3.8,1.4,5.7c0.4,1.6,0.7,3.1,1,4.7c0.5,2.3,0.9,4.7,1.3,7
			c0.3,1.6,0.5,3.2,0.7,4.9C2689.8,2036.5,2665.3,2092.8,2633.9,2120.1z"/>
	</g>
	<g>
		<path class="st6" d="M2633.9,2120.1c-53.2,46.5-150.9,8.1-223.6-25c-0.7,0.4-1.5,0.9-2.2,1.3c27.1-40.4,76.2-128.9,45-203.4
			c-29.5-70.4-52.9-92-66-110.2c35.4-4.2,113.6-5.5,191.8,45.2C2725.9,1923.2,2691.2,2070.1,2633.9,2120.1z"/>
	</g>
	<g class="st4">
		<path class="st1" d="M2633.9,2120.1c-53.2,46.5-150.9,8.1-223.6-25c-0.7,0.4-1.5,0.9-2.2,1.3c18.8-27.9,48-78.9,54-132.3
			c2.5,17.4,11.8,63.6,41.3,95.6c47.3,51.2,187.7-3.6,153.9-153.5c1.1,1.9,2.2,3.9,3.3,5.8c2.2,3.9,4.2,7.8,5.9,11.7
			c0.9,1.9,1.7,3.8,2.6,5.8c0,0,0,0,0,0.1c0.8,1.9,1.6,3.9,2.3,5.8c0.8,2,1.5,3.9,2.1,5.9c0,0,0,0,0,0.1c0.7,1.9,1.3,3.9,1.9,5.8
			c0.6,1.9,1.1,3.8,1.6,5.7c0,0.1,0,0.2,0.1,0.3c0.5,1.9,1,3.8,1.4,5.7c0.4,1.6,0.7,3.1,1,4.7c0.5,2.3,0.9,4.7,1.3,7
			c0.3,1.6,0.5,3.2,0.7,4.9C2689.8,2036.5,2665.3,2092.8,2633.9,2120.1z"/>
	</g>
	<g>
		<path class="st1" d="M2013.8,1698.7c-4.3,5.7-8.1,12.9-11.5,20.3c-3.3,7.4-6.2,15.2-8.8,23.2c-5.3,15.8-9.3,32.2-12.6,48.6
			c-6.5,32.9-9.9,66.5-9.4,99.7c0.5,33.2,4.9,66,14.6,96.8c9.7,30.7,25.4,59,47.4,81.6c21.9,22.6,50.1,39.1,80.6,49.1
			c30.5,9.8,63.7,13.2,96.7,12.4c33.1-0.8,66.4-5.8,98.7-14.2c32.2-8.5,63.8-20.3,91.6-36.7l0,0c5.3-3.1,11.7-3.2,16.9-0.9
			c30,13.6,60.1,26.4,90.7,35.1c15.3,4.4,30.6,7.6,45.7,9.1c15,1.4,29.8,0.7,42.8-3.1c6.5-1.9,12.5-4.6,17.9-8.1
			c2.7-1.8,5.2-3.7,7.7-5.9l3.8-3.5l3.6-3.9c4.7-5.3,8.9-11.2,12.8-17.5c3.7-6.4,7.1-13,10-19.9c11.4-27.7,14.8-58.7,9.9-88.2
			c-5-29.6-18.5-57.4-38.1-80.9c-19.5-23.5-44.8-43-72.1-58.3c-27.4-15.2-57.3-25.5-88.2-30.5c-15.5-2.5-31.1-3.7-46.8-3.6
			c-7.8,0.1-15.6,0.4-23.4,1.2c-3.9,0.4-7.7,0.8-11.5,1.4l-5.6,0.9c-1.7,0.3-3.9,0.8-5,1l-0.1,0c-9.9,2.3-19.9-3.8-22.2-13.8
			c-0.4-1.6-0.5-3.4-0.5-5c0.2-4.9,0.2-11.1,0-16.8c-0.2-5.8-0.5-11.7-0.9-17.5c-0.8-11.7-2.2-23.4-3.9-35.1
			c-3.5-23.3-8.6-46.4-15.4-68.9c-13.7-45-34.1-87.9-61.6-125.7c-27.4-37.9-61.6-70.6-100.6-96.5c-39-26-82.5-45.2-127.9-58.8
			l-0.1,0c-9.7-2.9-15.2-13.1-12.3-22.8c2.9-9.7,13.1-15.2,22.8-12.3c48.3,14.5,95.2,35.1,137.7,63.4c42.4,28.2,80.1,64,110,105.5
			c30,41.4,52.2,88,67,136.5c7.4,24.3,12.9,49.1,16.6,74.1c1.9,12.5,3.3,25.1,4.2,37.8c0.4,6.3,0.8,12.7,1,19.1
			c0.2,6.5,0.2,12.6-0.1,19.8l-22.7-18.7c3-0.7,4.9-1.1,7.3-1.5l6.8-1.1c4.5-0.7,8.9-1.2,13.4-1.6c8.9-0.9,17.8-1.3,26.6-1.4
			c17.7-0.1,35.4,1.3,52.9,4.1c35,5.7,69.1,17.4,100.1,34.6c7.7,4.3,15.4,8.9,22.7,13.9c3.6,2.5,7.3,5,10.9,7.5l10.6,8.1
			c13.9,11.1,26.9,23.6,38.4,37.5c23.2,27.7,40,61.8,46.1,98.2c6.1,36.3,1.8,74.1-12.1,108.2c-3.5,8.5-7.7,16.8-12.5,24.9
			c-4.9,8-10.4,15.6-16.8,22.9l-4.9,5.3l-5.3,5c-3.7,3.3-7.8,6.6-12.1,9.3c-8.6,5.6-18,9.8-27.5,12.6c-19.1,5.6-38.4,6.1-56.5,4.4
			c-18.2-1.7-35.6-5.5-52.4-10.3c-33.6-9.7-65.2-23.1-95.9-37l16.9-0.9c-32,18.8-66.2,31.4-101.1,40.7c-34.9,9.1-70.7,14.5-107,15.4
			c-36.2,0.8-73.2-2.7-108.9-14.2c-17.9-5.8-34.9-13.4-51.2-23c-16.2-9.7-31.4-21.2-44.7-34.7c-13.5-13.4-25.1-28.6-34.6-44.9
			c-9.5-16.3-17-33.6-22.6-51.3c-11.4-35.5-15.1-72.4-14.3-108.6c1-36.2,6.6-72,16.4-106.6c4.9-17.3,11-34.2,18.5-50.7
			c3.8-8.2,8-16.3,12.8-24.2c4.8-7.9,10.1-15.6,17.6-22.7c3.7-3.5,9.5-3.3,12.9,0.4c3.1,3.3,3.3,8.3,0.6,11.8L2013.8,1698.7z"/>
	</g>
	<g>
		<path class="st3" d="M2079.9,1587.9c-9.7,43.9-29.5,79.6-51.7,107.8c-44.8,57-99.1,83.2-99.1,83.2s-7.3,109.3-88.7,170.2
			c-44,32.9-173.5,50.7-222.5-51.4c-24.8-51.7-29.6-158.7,16.2-243.4c29.3-54.2,79.5-99.3,158.4-115l-41.2-210
			C2000.2,1276.2,2115.4,1427.7,2079.9,1587.9z"/>
	</g>
	<g class="st4">
		<path class="st1" d="M2086.2,1536.5c-0.3,16.9-2.4,34.1-6.3,51.4c-9.7,43.8-29.5,79.6-51.7,107.8c-44.8,57-99.2,83.2-99.2,83.2
			s-7.3,109.3-88.7,170.2c-44,32.9-173.5,50.7-222.5-51.5c-7.1-14.8-12.5-34.1-15.6-56.2c0.9,2.1,1.8,4.1,2.7,6.1
			c49,102.2,178.5,84.3,222.5,51.4c81.3-60.8,52-150.6,59.3-177.8c7.2-27.2,67.2-36.9,128.5-75.5c30.3-19.1,61.1-65.1,70.8-109
			C2086.1,1536.6,2086.1,1536.6,2086.2,1536.5z"/>
	</g>
	<g>
		<path class="st8" d="M1983.3,1742c-0.2,0.2-0.3,0.3-0.5,0.5c-1.6,1.3-3.1,2.6-4.6,3.8c-2,1.6-3.8,3.1-5.8,4.6
			c-1.7,1.4-3.5,2.7-5.2,3.9c-1.7,1.3-3.3,2.5-5,3.6c-1.4,1-2.7,1.9-4,2.8c-0.2,0.2-0.5,0.3-0.7,0.5c-1.6,1.1-3.1,2.1-4.5,3
			c-14.5,9.6-24.1,14.2-24.1,14.2s-7.3,109.3-88.7,170.2c-44,32.9-173.5,50.7-222.5-51.5c-0.5-0.9-0.9-1.9-1.3-2.8
			c-0.5-1-0.9-1.9-1.3-2.9c-1.9-4.4-3.6-9.1-5.1-14.1c-0.5-1.5-0.9-3-1.4-4.5c-0.8-2.8-1.6-5.7-2.2-8.7c-0.5-2.1-1-4.2-1.4-6.3
			c-0.2-0.7-0.3-1.4-0.4-2.1c-0.5-2.1-0.8-4.3-1.2-6.4v-0.1c-0.5-2.7-0.9-5.4-1.3-8.1c0.9,2.1,1.8,4.1,2.7,6.1
			c49,102.2,178.5,84.3,222.5,51.4c81.3-60.8,52-150.6,59.3-177.8c1-3.8,3-7.1,5.9-10.3C1926.7,1743.5,1929.8,1766.4,1983.3,1742z"
			/>
	</g>
	<g>
		<path class="st6" d="M1983.4,1742c-29.7,25.1-54.3,36.9-54.3,36.9s-7.3,109.3-88.7,170.2c-44,32.9-173.5,50.7-222.5-51.4
			c-24.8-51.7-29.6-158.7,16.2-243.4c51.5-21.7,146.3-23.7,230.9,34.1C1927.7,1731.1,1918,1771.8,1983.4,1742z"/>
	</g>
	<g class="st4">
		<path class="st1" d="M1983.3,1742c-0.2,0.2-0.3,0.3-0.5,0.5c-1.6,1.3-3.1,2.6-4.6,3.8c-2,1.6-3.8,3.1-5.8,4.6
			c-1.7,1.4-3.5,2.7-5.2,3.9c-1.7,1.3-3.3,2.5-5,3.6c-1.3,1-2.7,1.9-4,2.8c-0.2,0.2-0.5,0.3-0.7,0.5c-1.6,1.1-3.1,2.1-4.5,3
			c-14.5,9.6-24.1,14.2-24.1,14.2s-7.3,109.3-88.7,170.2c-44,32.9-173.5,50.7-222.5-51.5c-0.5-0.9-0.9-1.9-1.3-2.8
			c-0.5-1-0.9-1.9-1.3-2.9c-1.9-4.4-3.6-9.1-5.1-14.1c-0.5-1.5-0.9-3-1.4-4.5c-0.8-2.8-1.6-5.7-2.2-8.7c-0.5-2.1-1-4.2-1.4-6.3
			c-0.2-0.7-0.3-1.4-0.4-2.1c-0.5-2.1-0.8-4.3-1.2-6.4v-0.1c-0.5-2.7-0.9-5.4-1.3-8.1c0.9,2.1,1.8,4.1,2.7,6.1
			c49,102.2,178.5,84.3,222.5,51.4c81.3-60.8,52-150.6,59.3-177.8c1-3.8,3-7.1,5.9-10.3C1926.7,1743.5,1929.8,1766.4,1983.3,1742z"
			/>
	</g>
	<g>
		<path class="st1" d="M1747.5,1311.4c32.2-6.9,65.2-11,98.6-11.1l12.5,0l12.6,0.7c8.4,0.3,16.7,1.6,25.1,2.4
			c16.7,2.6,33.4,5.7,49.6,11.2c32.6,10.2,63.6,27.4,89.2,51c25.5,23.8,45,54,56.4,86.7c11.1,32.8,15.1,67.8,12,101.7
			c-0.2,4.3-0.8,8.5-1.4,12.7c-0.6,4.2-1,8.5-1.9,12.6l-2.4,12.5l-3.3,12.3l-3.4,12.3c-1.3,4-2.9,8-4.4,12l-4.5,12
			c-1.7,3.9-3.6,7.7-5.5,11.5c-14.7,30.7-34.8,58.5-58.4,82.5c-11.9,11.9-24.5,23-37.9,33.2c-6.8,5-13.6,9.9-20.7,14.5
			c-3.6,2.3-7.2,4.5-10.8,6.7c-3.8,2.2-7.2,4.2-11.8,6.4l10.3-15.3l0,0.1c-0.3,3.1-0.5,5.5-0.9,8.1c-0.3,2.6-0.7,5.1-1.1,7.6
			c-0.7,5-1.8,10-2.8,14.9c-2.2,9.8-4.6,19.6-7.8,29.1c-6.1,19.2-14.1,37.9-24.2,55.5c-2.7,4.4-5.1,8.8-8,13.1l-8.8,12.6
			c-6.5,8-12.9,16.1-20.5,23.2l-5.5,5.5c-1.9,1.8-3.9,3.4-5.9,5.1c-4.1,3.3-7.7,6.6-12.3,9.9c-9.6,6.7-19.3,11.5-29.2,15.3
			c-19.8,7.5-40.2,11.6-60.9,12.8c-20.7,1.2-41.8-0.6-62.3-6.4c-20.5-5.6-40.3-15.5-57.1-29.4c-8.4-7-15.8-15-22.5-23.5
			c-6.6-8.6-12.1-17.9-16.9-27.4c-9.3-19.8-14.2-39.9-17.2-59.9c-3-20.1-4-40.2-3.2-60.2c1.8-40,10.2-79.8,26.3-116.9
			c8.2-18.5,18.4-36.1,30.7-52.4c12.5-16.1,26.8-30.8,43.1-43c16.2-12.2,34-22.3,52.7-29.4c18.7-7.1,38.1-11.8,57.6-14.2
			c5-0.6,9.6,2.9,10.2,8c0.6,4.5-2.2,8.6-6.4,9.9l-0.3,0.1c-17.6,5.4-34.6,11.7-50.5,19.9l-11.7,6.4l-11.2,7.2
			c-7.2,5.1-14.4,10.3-20.9,16.2c-26.4,23.2-46.4,52.9-59.7,85.6c-13.5,32.6-20.5,68.3-21.5,103.9c-0.6,17.8,0.2,35.7,2.8,53.1
			c2.5,17.4,7,34.4,13.7,49c3.7,7.4,7.7,14.6,12.6,21c4.9,6.4,10.4,12.4,16.5,17.6c12.3,10.3,26.9,18.1,42.9,22.5
			c15.9,4.6,33.1,6.2,50.2,5.3c17.1-0.9,34.3-4.2,49.9-10.1c7.8-3,15.1-6.7,21-10.9c3.1-2.3,6.5-5.3,9.8-8c1.6-1.4,3.4-2.6,4.9-4.1
			l4.5-4.6c6.3-5.8,11.6-12.7,17.1-19.3l7.5-10.7c2.5-3.6,4.5-7.5,6.8-11.2c8.7-15.2,15.7-31.5,21-48.4c2.8-8.4,4.9-17.1,6.9-25.7
			c0.9-4.3,1.8-8.7,2.4-13c0.4-2.2,0.7-4.3,0.9-6.5c0.3-2.1,0.5-4.4,0.7-6l0,0l0-0.2c0.6-6.7,4.7-12.3,10.3-15.1
			c2.6-1.3,6.1-3.3,9.2-5.1c3.2-1.9,6.4-3.8,9.5-5.9c6.3-4.1,12.4-8.5,18.5-12.9c12-9.1,23.3-19.1,33.9-29.7
			c21.1-21.4,38.7-45.9,51.5-72.7c1.6-3.4,3.3-6.6,4.8-10l3.9-10.4c1.3-3.5,2.7-6.9,3.8-10.4l2.9-10.7l2.9-10.7l2.1-10.9
			c0.8-3.6,1.1-7.3,1.7-11c0.5-3.7,1-7.3,1.2-11c2.7-29.5-0.8-59.2-10.1-86.7c-9.6-27.4-25.6-52.2-46.7-72
			c-21.3-19.5-47.2-34.1-75.4-42.9c-14-4.7-28.7-7.4-43.5-9.8c-7.5-0.7-14.9-1.9-22.4-2.2l-11.3-0.6l-11.4,0
			c-30.3,0.1-60.9,3.8-91,10.3c-9.9,2.1-19.6-4.2-21.7-14.1C1731.3,1323.2,1737.6,1313.5,1747.5,1311.4L1747.5,1311.4z"/>
	</g>
	<g>
		<g>
			<path class="st3" d="M1951.2,1116.2c9.7,354.7-401.2,452.6-592.6,516.7l-247.8,31.6c-130.1-9-352.6-8.6-515.2-100.6
				c-39.3-22.2-75-49.8-105.2-84.2c-21.5-24.5-40.1-52.5-55.1-84.5c-10.1-21.7-18.6-45.2-25.2-70.7c-2.5-9.7-4.7-19.7-6.7-29.9
				c-5.7-30.1-8.9-62.8-9.2-98.2c-0.3-30.7,9.6-137,28.2-242.3c6.3-35.9,13.6-71.6,21.9-104.2c-70.2-193.2-120.4-441.3-64.1-536.2
				c36.6-61.7,162.3-20.5,361.6,110.4c121.1-72.9,296.5-98.6,323.5-102c27-3.5,203.2-22.7,338.7,17.4
				c160-176.8,271.3-248.3,322.2-197.8c78.3,77.7,92.1,330.5,72.7,535.1c63.8,116,125.7,282.9,135.6,322.8
				C1944.9,1041.3,1950.2,1080.1,1951.2,1116.2z"/>
		</g>
		<g class="st9">
			<path class="st6" d="M1799.9,368.7c-12.4-79.2-34-144-67.3-177c-50.9-50.5-162.3,20.9-322.2,197.8
				c-135.5-40.1-311.7-21-338.7-17.4c-27,3.3-202.4,29.1-323.5,102C548.9,343.1,423.1,302,386.5,363.7
				c-23.9,40.4-28.6,108.5-20.7,188.2c-15.4-100.9-14.5-189.6,14.3-238.2c36.6-61.7,162.3-20.5,361.6,110.4
				c121.1-72.9,296.5-98.6,323.5-102c27-3.5,203.2-22.7,338.7,17.4c160-176.8,271.3-248.3,322.2-197.8
				C1766.3,181.5,1789.5,267.2,1799.9,368.7z"/>
		</g>
		<g>
			<path class="st6" d="M1951.2,1116.2c9.7,354.7-401.2,452.6-592.6,516.7l-247.8,31.6c-130.1-9-352.6-8.6-515.2-100.6
				c-39.3-22.2-75-49.8-105.2-84.2c-21.5-24.5-40.1-52.5-55.1-84.5c-10.1-21.7-18.6-45.2-25.2-70.7
				c336.6,221.8,540.7,77,613.2-134.6c28-81.7,101.5-98.6,133.8-102.7c32.3-4.1,107.7-6.2,155.3,65.8
				C1437.4,1342.2,1676.2,1431,1951.2,1116.2z"/>
		</g>
		<g class="st4">
			<path class="st1" d="M1933.1,1247.9c-80.7,249.1-409.4,329.5-574.6,384.9l-247.8,31.6c-130.1-9-352.6-8.6-515.2-100.6
				c-39.3-22.2-75-49.8-105.2-84.2c-11.7-13.3-22.5-27.7-32.4-43.2c18.1,13.9,37.1,26.4,57,37.6c123.8,70,522.2,62.3,702.4,39.2
				C1397.5,1490.4,1832.2,1377.9,1933.1,1247.9z"/>
		</g>
		<g>
			<path class="st1" d="M664.8,789.7C653.9,776.7,698,642,816.6,665c42.7,8.3,51.7,47.7,21,60.3c-29.2,12-43.7,7.2-88.5,29.7
				C723.7,767.7,675.7,802.7,664.8,789.7z"/>
		</g>
		<g>
			<path class="st1" d="M1570.3,674c7.3-15.4-69.3-134.6-178.2-82.6c-39.2,18.7-38,59.2-5.1,63.6c31.3,4.3,44.1-4,93.1,6.5
				C1507.8,667.5,1563,689.4,1570.3,674z"/>
		</g>
		<g>
			<path class="st10" d="M575.8,597.8c-47.7,66-72,152.8-78.1,143.8c-0.6-0.9-1.2-1.9-1.9-3.1C481.9,712.8,451,608,439,512.7
				c-1.9-15.4-3.2-29-3.9-41.1c-2-32.6,0-53.9,4-67.8c4.9-17.1,20-24,34.6-20.3c38.8,9.9,152.7,65.7,192.5,105.7
				C673.3,496.2,623.6,531.9,575.8,597.8z"/>
		</g>
		<g>
			<path class="st11" d="M575.8,597.8c-47.7,66-72,152.8-78.1,143.8c-0.6-0.9-1.2-1.9-1.9-3.1c6-51.6,31.1-125,50.7-178.3
				c26.9-72.7-28.8-120.8-73.3-131.7c-15.2-3.7-29.5,22.3-38.2,43.1c-2-32.6,0-53.9,4-67.8c4.9-17.1,20-24,34.6-20.3
				c38.8,9.9,152.7,65.7,192.5,105.7C673.3,496.2,623.6,531.9,575.8,597.8z"/>
		</g>
		<g>
			<path class="st1" d="M498.7,763.1c-7.2,0-14-3.6-18.2-9.7c-15.6-22.9-49.7-138.7-62.1-238.1l0,0c-6.7-53.7-6.5-92.1,0.7-117.2
				c7.8-27,32.9-41.5,59.7-34.8c41.3,10.4,158.4,67.2,202.1,111.1c4.7,4.7,13.7,17.7-2.4,37.8c-4.7,5.8-11.4,12.8-20,21.6
				C640.8,552,616.6,577,592.7,610c-26.2,36.3-45.4,79.9-58,108.8c-14,32-18.7,42.7-33.9,44.2C500,763,499.4,763.1,498.7,763.1z
				 M459.6,510.1c8.8,70.5,27.3,141.2,40.8,183.1c13.3-30.1,32.3-71.4,58.5-107.6c25.7-35.5,52.1-62.7,69.7-80.8
				c3.8-3.9,7.7-8,11.1-11.6c-44.8-36.2-139.6-81.7-171.2-89.7c-4.9-1.2-8.1,0.8-9.6,6C455.3,422.8,452.3,451.1,459.6,510.1
				L459.6,510.1z"/>
		</g>
		<g>
			<path class="st10" d="M1610.2,465.7c62.8,51.8,108.1,129.8,111.8,119.6c0.4-1,0.7-2.1,1-3.5c7-28.3,10.6-137.5-1.8-232.8
				c-2-15.4-4.2-28.9-6.5-40.8c-6.3-32-13.6-52.1-20.9-64.7c-9.1-15.3-25.4-18.2-38.6-11c-35.1,19.3-131.2,102-159.7,150.7
				C1490.3,391.8,1547.4,413.9,1610.2,465.7z"/>
		</g>
		<g>
			<path class="st11" d="M1610.2,465.7c62.8,51.8,108.1,129.8,111.8,119.6c0.4-1,0.7-2.1,1-3.5c-18.7-48.4-61.5-113.2-93.9-159.8
				c-44.3-63.7-2.5-124.2,37.8-145.9c13.8-7.5,34.1,14.2,47.8,32.1c-6.3-32-13.6-52.1-20.9-64.7c-9.1-15.3-25.4-18.2-38.6-11
				c-35.1,19.3-131.2,102-159.7,150.7C1490.3,391.8,1547.4,413.9,1610.2,465.7z"/>
		</g>
		<g>
			<path class="st1" d="M1720,607c-12.3,0-20.2-10-39.6-34.6c-19.5-24.8-49-62.2-83.5-90.7c-31.4-26-61.2-44-82.9-57.2
				c-10.5-6.4-18.8-11.4-24.8-15.9c-20.7-15.4-15.2-30.3-11.9-36c31.3-53.5,130.4-137.9,167.7-158.4c24.3-13.3,52.2-5.5,66.5,18.6
				c13.3,22.6,23.1,59.6,30.2,113.3l0,0c13,99.3,9.1,219.9-0.3,246c-2.7,7.6-9.3,13.1-17.1,14.4C1722.8,606.9,1721.4,607,1720,607z
				 M1522,380.6c4.2,2.6,9,5.6,13.6,8.4c21.5,13.1,54,32.8,87.7,60.7c34.4,28.4,63.2,63.6,83.7,89.4c2.6-43.9,2.7-117-6.5-187.5
				c-7.7-59-17.7-85.6-24.7-97.6c-2.7-4.6-6.3-5.7-10.7-3.3C1636.6,266.4,1556.3,334.3,1522,380.6z"/>
		</g>
		<g>
			<path class="st1" d="M1355.7,1624.4c51.1-21.6,103.2-39.2,154.2-58.8c51-19.4,101.6-39.5,149.9-63.7c12-6.2,24-12.3,35.7-19
				c11.9-6.4,23.2-13.6,34.7-20.6c22.4-14.7,44.5-29.9,64.6-47.3l7.7-6.4c2.5-2.2,4.8-4.5,7.3-6.8l14.5-13.6l13.5-14.4
				c2.2-2.4,4.6-4.7,6.7-7.3l6.2-7.7c17.2-20,31.2-42.3,43.5-65.3l8.5-17.7c0.7-1.5,1.4-2.9,2.1-4.4l1.7-4.6l3.5-9.2l3.5-9.2
				c0.6-1.5,1.2-3,1.7-4.6l1.3-4.7l5.3-18.9l1.3-4.7l0.9-4.8l1.8-9.6c1.1-6.5,2.7-12.8,3.4-19.3l2-19.6l1-9.8l0.1-9.9l0.3-19.8
				c0.2-3.3,0-6.6-0.3-9.9l-0.6-9.9l-1.3-19.8c-0.8-6.6-1.8-13.2-2.7-19.7l-2.8-19.7l-4.2-19.6l-4.2-19.6l-2.5-9.1l-3-9.5
				c-8.3-25.5-17.8-51.2-27.6-76.7c-9.8-25.5-20.1-50.8-30.8-75.9c-21.4-50.2-44.5-99.8-70.4-147.2l-2.8-5.1l0.5-5.8
				c7.2-78.4,9.5-157.5,5.8-236c-2-39.2-5.4-78.3-11.4-116.8c-6-38.4-14.5-76.4-28.4-111.2c-6.9-17.3-15.6-33.6-26.2-46.9
				c-1.3-1.8-2.7-3.2-4.1-4.8l-2.1-2.3c-0.7-0.8-1.4-1.6-2-2c-1.3-1-2.4-2.3-3.7-3l-1.9-1.4c-0.7-0.4-1.4-0.7-2.1-1.1
				c-5.4-2.8-11.8-4.2-19.2-3.9c-14.9,0.4-32,7-48.2,15.2c-16.3,8.4-32.2,19-47.6,30.3c-30.9,22.9-60,49.2-88.1,76.5
				c-28.1,27.4-55.2,56.1-81.7,85.4l-8.4,9.3l-12.3-3.5c-26.1-7.5-53.1-12.8-80.5-16.6c-27.4-3.8-55.1-5.7-83-6.8
				c-27.8-1-55.8-0.8-83.7,0.4c-27.9,1.2-56,3.3-83.2,6.6c-27.2,3.7-55,8.7-82.2,14.6c-27.3,5.9-54.4,12.7-81.1,20.7
				c-26.7,8-53.1,16.8-78.6,27.4c-25.5,10.6-50.3,22.5-73.7,36.3l-11.1,6.5l-10.6-7c-33-21.7-66.4-42.6-100.5-62.1
				c-34.1-19.3-68.9-37.5-104.5-51.8c-17.8-7.1-35.8-13.3-53.7-17.3c-17.7-3.9-35.9-5.9-50.4-2.6c-7.2,1.6-13,4.5-17.5,8.6
				c-0.6,0.5-1.2,1-1.7,1.5l-1.5,1.8c-1.1,1.1-1.9,2.6-2.8,3.9c-0.5,0.6-0.9,1.5-1.4,2.4l-1.5,2.7c-1,1.8-2,3.6-2.8,5.6
				c-6.9,15.5-11.2,33.4-13.5,51.9c-4.7,37.1-3.3,76.1,0.5,114.7c3.8,38.7,10.4,77.4,18.3,115.9c16.2,76.9,38.3,152.8,65,226.9
				l2,5.6l-1.5,5.8c-13.2,52.4-22.9,106.2-31.1,160.2c-4.1,27-7.6,54.1-10.7,81.2c-3.1,27.1-5.8,54.4-7.4,81.1
				c-0.4,6.7-0.6,13.2-0.6,19.4c0.1,6.7,0.2,13.4,0.5,20c0.6,13.3,1.6,26.6,3.1,39.8c3,26.4,8,52.4,15.5,77.7
				c14.8,50.5,39.9,97.5,74.9,136.3c34.8,39,78.8,69.6,126.7,92.5c48,22.9,99.7,38.6,152.5,50c52.8,11.5,106.8,18.1,161.1,23.5
				l81.7,8.5c27.4,2.9,54.8,6.1,82.2,10.7c4.9,0.8,8.2,5.4,7.3,10.3c-0.7,4.3-4.4,7.3-8.5,7.5h0c-55,1.8-110.3,1.9-165.7-1.8
				c-55.4-3.7-110.9-11-165.8-22.7c-54.8-11.8-109.3-28.1-160.8-52.5c-51.4-24.4-99.7-57.7-138.5-100.9c-39-43-67.1-95.5-83.3-150.6
				c-8.2-27.6-13.7-55.8-17-84.1c-1.6-14.2-2.7-28.3-3.4-42.5c-0.3-7.1-0.5-14.2-0.6-21.3c0-7.6,0.2-14.8,0.7-21.9
				c1.6-28.2,4.3-55.7,7.4-83.4c3.1-27.6,6.7-55.1,10.7-82.6c8.2-54.9,17.9-109.6,31.5-164.1l0.6,11.4
				c-27.5-75.7-50.2-153.1-67-232.1c-8.3-39.5-15.1-79.5-19.2-120c-4-40.5-5.8-81.7-0.6-123.7c2.7-21,7.4-42.3,16.6-63.2
				c1-2.6,2.4-5.2,3.8-7.8l2.1-3.9c0.7-1.3,1.3-2.5,2.4-4c1.9-2.8,3.6-5.6,6-8.2l3.4-3.9c1.2-1.2,2.5-2.4,3.8-3.5
				c10.3-9.3,23.1-15.2,35.3-17.9c12.3-2.8,24.1-3.1,35.4-2.4c11.3,0.8,22.2,2.4,32.6,4.8c21,4.7,40.7,11.5,59.9,19.1
				c38.3,15.4,74.3,34.2,109.6,54c35.1,20,69.3,41.3,102.9,63.2l-21.7-0.4c51.2-30.3,106-51.5,161.5-68.1
				c27.8-8.4,55.8-15.5,84.1-21.7c28.3-6.1,56.6-11.4,85.7-15.3c29.2-3.5,57.8-5.6,86.8-6.7c28.9-1.2,57.9-1.3,86.8-0.2
				c57.9,2.2,116.3,8.9,173.4,25.4L1389,326c27-29.7,54.7-58.9,83.7-87.1c29.1-28.1,59.2-55.3,92.5-79.8
				c16.7-12.2,34.1-23.8,53.2-33.6c9.5-4.9,19.6-9.3,30.4-12.8c10.7-3.5,22.3-6.2,34.8-6.6c12.5-0.4,26.3,2,38.5,8.4
				c1.5,0.8,3.1,1.6,4.5,2.5l4.2,2.9c2.9,1.9,5.3,4.2,7.8,6.4c1.3,1.1,2.3,2.2,3.3,3.3l3,3.2c2,2.1,4,4.3,5.6,6.6
				c14.2,17.9,24.1,37.4,31.9,57c15.5,39.4,24.2,79.7,30.5,119.9c6.2,40.3,9.6,80.6,11.6,121c3.6,80.7,1,161.2-6.5,241.4l-2.3-11
				c26.7,49.3,50,99.8,71.7,150.8c10.9,25.5,21.2,51.3,31.1,77.2c9.9,26,19.5,51.9,28.1,78.8l3.2,10.2l3,10.8l4.4,20.8l4.4,20.8
				l3,21.1c0.9,7.1,2,14.1,2.9,21.2l1.3,21.4l0.7,10.7c0.3,3.6,0.4,7.1,0.3,10.7l-0.4,21.5l-0.2,10.8l-1.1,10.7l-2.2,21.5
				c-0.8,7.2-2.5,14.2-3.8,21.3l-2,10.6l-1.1,5.3l-1.5,5.2l-5.9,20.9l-1.5,5.2c-0.6,1.7-1.3,3.4-1.9,5.1l-3.9,10.1l-3.9,10.1
				l-1.9,5.1c-0.7,1.7-1.6,3.3-2.3,4.9l-9.4,19.5c-13.7,25.4-29.2,50-48,71.7l-6.8,8.3c-2.3,2.8-4.9,5.3-7.3,7.9l-14.7,15.6
				l-15.6,14.6c-2.6,2.4-5.2,4.9-7.9,7.3l-8.2,6.8c-21.6,18.7-45,34.7-68.6,50.1c-12.1,7.3-24,14.9-36.4,21.5
				c-12.2,7-24.7,13.4-37.2,19.7c-25.2,12.4-50.6,24.2-76.5,34.4c-12.9,5.4-26,10.1-39,15.1c-13.1,4.6-26.2,9.3-39.4,13.5
				c-52.8,17.3-106.2,31.4-159.6,44.4l-0.1,0c-4.8,1.2-9.6-1.8-10.8-6.6C1349.5,1630.4,1351.8,1626.1,1355.7,1624.4z"/>
		</g>
		<g>
			<path class="st8" d="M1315,1209.2c0,0,10.5,81.8-63.3,86.9c-52.3,3.6-68.5-37.7-69.7-41.1c-0.4,3.5-5.7,47.6-57.2,57.3
				c-72.7,13.7-83.1-68.2-83.1-68.2l122.5-123.4l1.2-0.2L1315,1209.2z"/>
		</g>
		<g>
			<path class="st6" d="M1314.4,1209.8c0,0-15.9,65.3-73.4,57.9c-65.4-8.4-67.3-84.9-67.3-84.9l-2.3,0.3c0,0,17.1,74.6-44.2,98.9
				c-53.8,21.4-85.4-38-85.4-38s-33.5-137.8,118.1-157.2C1311.5,1067.6,1314.4,1209.8,1314.4,1209.8z"/>
		</g>
		<g class="st4">
			<path class="st1" d="M1309,1224.6c-8.5,18.8-28.4,48.2-68,43.1c-65.4-8.4-67.3-84.9-67.3-84.9l-2.3,0.3c0,0,17.1,74.6-44.2,98.9
				c-37,14.7-63.6-8.8-76.5-24.9c10.8-0.4,22.4-2.7,34.6-7.6c101.2-40.2,75.8-141.1,75.8-141.1l3.9-0.5c0,0,0.3,104.1,108.3,118
				C1286.4,1227.7,1298.3,1227.1,1309,1224.6z"/>
		</g>
		<g>
			<path class="st1" d="M1050.9,1239.2c2.3,2.7,5.2,6.1,8.1,8.9c2.8,3,5.9,5.7,8.9,8.2c6.1,5,12.7,9.1,19.2,11.5
				c6.6,2.5,13.1,3.3,19.7,3c3.3-0.7,6.7-0.8,10-2.2c1.7-0.6,3.4-1,5.1-1.7l5-2.4c13.3-6.3,22.5-17.2,28.1-31.4
				c2.8-7.1,4.5-15,5.5-23.1c0.6-4.1,0.7-8.2,0.9-12.4c0.1-4.1,0.1-8.7-0.2-12.2l-0.1-0.9c-0.4-5.7,4-10.7,9.7-11
				c4.9-0.3,9.2,2.8,10.6,7.3c1.7,5.4,2.7,10,3.5,15.1c0.8,5,1.2,10,1.4,15.2c0.2,10.2-0.6,20.7-3.7,31.1c-5.4,20.8-21,41-41.1,50.6
				l-7.4,3.6c-2.5,1.1-5.3,1.9-8,2.7c-5.3,1.9-11.3,2.4-17,3.2c-11.8,0.6-23.8-2.1-34-7c-10.3-5-18.8-12.1-25.8-19.9
				c-3.4-4-6.6-8.1-9.3-12.4c-2.8-4.4-5-8.6-7.3-13.9c-2.2-5.3,0.2-11.4,5.5-13.6c4.3-1.8,9.1-0.5,12,2.8L1050.9,1239.2z"/>
		</g>
		<g>
			<path class="st1" d="M1324.4,1212.3c-0.9,5.7-2,10.3-3.6,15.3c-1.6,4.9-3.6,9.7-6,14.4c-4.8,9.3-11.3,18.3-20,25.7
				c-8.7,7.3-19.6,12.9-31.2,15.2c-5.7,0.6-11.6,1.7-17.2,1.1c-2.8-0.2-5.7-0.2-8.4-0.6l-8.1-1.7c-21.8-4.3-42-20-52.4-38.8
				c-5.6-9.3-9-19.3-11.3-29.2c-1.1-5-2-10-2.4-15c-0.5-5.1-0.7-9.8-0.4-15.5c0.3-5.7,5.2-10.2,10.9-9.9c4.9,0.2,8.8,3.8,9.7,8.4
				l0.2,0.9c0.7,3.5,1.8,8,2.9,11.9c1.2,4,2.4,8,3.9,11.8c2.9,7.7,6.6,14.9,11,21c9,12.4,20.6,20.6,35,23.4l5.4,1.1
				c1.8,0.3,3.5,0.2,5.3,0.4c3.6,0.6,6.8-0.2,10.2-0.3c6.5-1.3,12.6-3.6,18.4-7.7c5.8-3.9,11.1-9.5,15.8-15.9
				c2.3-3.2,4.6-6.6,6.6-10.2c2.1-3.4,4.1-7.5,5.6-10.7l0.6-1.2c2.5-5.1,8.7-7.3,13.9-4.8
				C1322.9,1203.5,1325.1,1207.9,1324.4,1212.3z"/>
		</g>
		<g>
			<g>
				<path class="st1" d="M1243.8,1133.8c2.2,17.9-19.1,36.6-39.1,50c-21,14-46,17.2-69.8,8.8c-22.7-8-48-20.9-50.3-38.8
					C1077.9,1100,1237.1,1080,1243.8,1133.8z"/>
			</g>
			<g class="st9">
				<path class="st6" d="M1194.5,1129.3c0.6,5.2-8,10.9-16.1,15c-8.5,4.3-18.4,5.6-27.7,3.5c-8.9-2-18.7-5.4-19.3-10.6
					C1129.4,1121.7,1192.5,1113.8,1194.5,1129.3z"/>
			</g>
		</g>
		<g>
			
				<ellipse transform="matrix(0.9919 -0.1267 0.1267 0.9919 -136.363 114.2398)" class="st7" cx="829.9" cy="1129.1" rx="123.6" ry="129.7"/>
		</g>
		<g>
			
				<ellipse transform="matrix(0.9919 -0.1267 0.1267 0.9919 -139.7312 116.9596)" class="st6" cx="849.5" cy="1156.8" rx="52.3" ry="54.9"/>
		</g>
		<g>
			
				<ellipse transform="matrix(0.9919 -0.1267 0.1267 0.9919 -130.6541 108.2225)" class="st6" cx="785.3" cy="1081.1" rx="30.2" ry="31.6"/>
		</g>
		<g>
			
				<ellipse transform="matrix(0.9919 -0.1267 0.1267 0.9919 -120.3079 197.5072)" class="st7" cx="1492.4" cy="1044.5" rx="123.6" ry="129.7"/>
		</g>
		<g>
			
				<ellipse transform="matrix(0.9919 -0.1267 0.1267 0.9919 -123.6467 200.1792)" class="st6" cx="1512" cy="1072.2" rx="52.3" ry="54.9"/>
		</g>
		<g>
			
				<ellipse transform="matrix(0.9919 -0.1267 0.1267 0.9919 -114.5901 191.4885)" class="st6" cx="1447.8" cy="996.4" rx="30.2" ry="31.6"/>
		</g>
		<g>
			<path class="st1" d="M497.6,1275.4c-3.2-1.3-7-2.7-10.6-4c-3.6-1.4-7.3-2.6-11-3.8c-3.7-1.2-7.4-2.4-11.1-3.4
				c-3.8-1-7.4-2.3-11.2-3.2c-15.1-3.9-30.2-7.7-45.5-10.4c-30.6-5.6-61.5-9.5-92.7-10.2c-7.8-0.5-15.6,0-23.4-0.1l-11.7,0
				c-3.9,0-7.8,0.4-11.7,0.6c-7.8,0.5-15.6,1-23.4,1.4l-23.3,2.6c-15.6,1.2-30.9,5.1-46.4,7.4l-5.8,1l-5.7,1.4l-11.5,2.7
				c-7.6,1.9-15.3,3.5-23,5.3l-0.6,0.1c-4.9,1.1-9.8-2-10.9-6.9c-1-4.6,1.7-9.2,6.1-10.7c7.7-2.5,15.4-5.1,23.2-7.5l11.6-3.7
				l5.8-1.8l5.9-1.4c7.9-2,15.8-3.8,23.8-5.6c4-0.8,7.9-2,11.9-2.6l12.1-1.9l24.2-3.8c8.1-0.8,16.3-1.5,24.4-2.2
				c4.1-0.3,8.1-0.8,12.2-0.9l12.3-0.3c8.2-0.1,16.4-0.6,24.5-0.2l24.5,1c8.2,0.5,16.3,1.5,24.5,2.3c8.2,0.7,16.2,2.3,24.3,3.5
				c8.1,1.2,16.1,3,24.1,4.8c32.1,7.4,63,17.7,92.5,34.3c4.4,2.5,6,8,3.5,12.4c-2.3,4.1-7.2,5.7-11.4,4L497.6,1275.4z"/>
		</g>
		<g>
			<path class="st1" d="M533.9,1393.8c-13.3,0.2-27.4,1-41,2.3c-13.7,1.2-27.4,2.8-41,4.9c-27.1,4.2-54,9.9-79.9,18.4
				c-12.9,4.2-25.7,9-38,14.7c-6.2,2.7-12.2,5.9-18.3,8.8c-5.9,3.3-12,6.4-17.6,10.1c-23.3,13.9-44.3,31.2-63.2,51l-0.1,0.1
				c-3.5,3.7-9.3,3.8-12.9,0.3c-3.4-3.2-3.7-8.5-1-12.2c17.8-23.2,39.4-43.7,63.8-60c12.2-8.2,24.9-15.7,38.1-21.9
				c13.2-6.4,26.7-12.1,40.6-16.6c27.7-9.4,56.2-15.7,85.1-18.7c28.9-3,57.7-3.4,87,0.7c5,0.7,8.5,5.3,7.8,10.3
				c-0.6,4.5-4.5,7.8-8.9,7.9L533.9,1393.8z"/>
		</g>
		<g>
			<path class="st1" d="M1842,1088.6c24.4-23.5,51.7-41.2,80.9-56.5c7.3-3.7,14.6-7.5,22.1-10.7c7.5-3.2,14.9-6.8,22.7-9.5
				c7.7-2.9,15.3-5.9,23.1-8.4l23.5-7.1c7.8-2.4,15.9-4,23.8-6l11.9-2.8c4-0.9,8-1.4,12.1-2.2c8.1-1.4,16.1-2.8,24.2-4l24.4-2.4
				l12.2-1.2c4.1-0.4,8.1-0.3,12.2-0.5c8.1-0.3,16.3-0.5,24.4-0.6l6.1-0.1l6.1,0.3l12.2,0.6c8.1,0.4,16.2,0.9,24.3,1.4
				c5,0.3,8.9,4.7,8.5,9.7c-0.3,4.7-4.1,8.4-8.8,8.6l-0.7,0c-7.9,0.3-15.8,0.6-23.6,0.7l-11.8,0.2l-5.9,0.1l-5.9,0.5
				c-15.6,1.7-31.3,1.8-46.8,4.5l-23.2,3.3c-7.6,1.6-15.3,3.1-23,4.6c-3.8,0.8-7.7,1.4-11.5,2.3l-11.3,2.9c-7.5,2.1-15.2,3.6-22.6,6
				c-30,8.6-58.9,20.1-87.2,33.2c-14.2,6.5-27.8,13.9-41.4,21.5c-3.4,1.9-6.6,4-10,6c-3.4,1.9-6.7,4-9.9,6.1
				c-3.3,2.1-6.5,4.2-9.7,6.4c-3.2,2.1-6.5,4.4-9.2,6.5l-0.6,0.4c-4.1,3-9.8,2.2-12.8-1.9C1838.2,1096.9,1838.7,1091.8,1842,1088.6z
				"/>
		</g>
		<g>
			<path class="st1" d="M1842.8,1208.6c27.3-11.3,55.2-18.2,84-22.5c28.7-4.3,57.9-5.4,87.1-3.3c14.6,0.9,29.1,3,43.5,5.9
				c14.4,2.7,28.6,6.7,42.4,11.6c27.8,9.6,53.9,24.1,76.9,42.1c4,3.1,4.7,8.9,1.6,12.9c-2.9,3.7-8.1,4.6-12,2.2l-0.2-0.1
				c-23.2-14.4-47.9-25.9-74-33.5c-6.4-2.1-13.1-3.6-19.6-5.3c-6.7-1.3-13.2-2.9-20-3.9c-13.4-2.4-26.9-3.8-40.5-4.7
				c-27.2-1.8-54.6-0.5-81.9,2.2c-13.7,1.4-27.3,3.3-40.9,5.6c-13.5,2.2-27.3,5-40.3,8.1l-0.5,0.1c-4.9,1.2-9.9-1.8-11-6.8
				C1836.3,1214.8,1838.7,1210.3,1842.8,1208.6z"/>
		</g>
	</g>
	<g>
		<path class="st3" d="M905.3,2144.3c-300.5,14.9-160.1-337.3-158-342.7l0,0c0,0-14.2-2.2-34.2-10.3
			c-37.8-15.4-96.1-51.6-117.2-133.4c-29-112,92.8-184.4,175.4-42.4c0,0,235.6-86.6,273.6,109.1c5.8,29.5,11.4,60.9,15.7,92.8
			c3.5,25.8,6.2,51.9,7.5,77.5C1074.4,2022.1,1045,2137.4,905.3,2144.3z"/>
	</g>
	<g class="st4">
		<path class="st1" d="M905.3,2144.3c-300.5,14.9-160.1-337.3-158-342.7l0,0c0,0-14.2-2.2-34.2-10.3
			c99.5,25.7,158.3,15.6,160.4,15.2c-2.6,1.9-103,76.4-59,190.4c35,90.7,231.8,81.5,253.6-102
			C1074.4,2022.1,1045,2137.4,905.3,2144.3z"/>
	</g>
	<g>
		<path class="st6" d="M1060.7,1817.4c-32.7-13.5-77.7-23.2-134.9-15.8c-115.8,15-178.5,0-178.5,0s-119.1-18.8-151.4-143.7
			c-6-23.2-5.5-44.7-0.2-62.9c20-69.8,110.2-92,175.6,20.5c0,0,205.3-75.5,263.5,73.7c4.2,10.6,7.6,22.4,10.1,35.4
			C1050.8,1754.1,1056.4,1785.5,1060.7,1817.4z"/>
	</g>
	<g class="st4">
		<path class="st1" d="M1034.9,1689.2c-74.4-71.3-192.6-67.9-217-50.6c-11.4,8.1,2.1,22.8-4.5,31.4c-4.5,5.9-35.4-23.1-54.8-24.4
			c-23.2-1.6-42.9,16.7-46,6c-3.7-12.9,23.8-64.2-35.9-83.5c-24.2-7.9-55.9,8.9-81,26.9c20-69.8,110.2-92,175.6,20.5
			C771.4,1615.5,976.7,1540,1034.9,1689.2z"/>
	</g>
	<g>
		<path class="st1" d="M887.1,2163.1c-73.8,0-127.4-22.8-159.5-68c-61.6-86.7-22.2-228.7-4.5-280.8
			c-38.6-12.1-118.3-48.9-144.9-151.9c-15.5-60.1,7.7-117.9,55.3-137.4c39.4-16.2,97.4-5.9,145.8,68.6c36-10.7,131.9-32.7,204.2,8.1
			c41.8,23.6,68.5,63.7,79.4,119.3c27,138.6,45.4,292-22.3,378.5c-30.5,38.9-75.7,60.1-134.5,63.1
			C899.7,2162.9,893.3,2163.1,887.1,2163.1z M667,1555.2c-7.1,0-13.7,1.4-19.6,3.8c-26.1,10.7-46.1,46.6-33.8,94.4
			c28.8,111.2,132.2,129.5,136.6,130.2c5.5,0.9,10.3,4.3,13,9.1c2.7,4.8,3.1,10.7,1,15.8c-0.7,1.8-70.1,176.5-6.7,265.5
			c27.1,38.1,76.5,55.6,146.8,52.1c48.4-2.4,83.5-18.5,107.5-49.1c59-75.3,39.1-226,15.2-348.9c-8.7-44.6-29.3-76.3-61.3-94.4
			c-74.1-41.8-187-1.4-188.1-1c-8.3,3-17.7-0.3-22.1-8C725.6,1573.3,692.9,1555.2,667,1555.2z"/>
	</g>
	<g>
		<path class="st1" d="M751.5,1783.8c4.2,1.3,9.8,2.6,14.9,3.8c5.2,1.1,10.5,2.2,15.9,3.1c10.7,1.8,21.5,3.2,32.4,4.3
			c10.9,0.9,21.9,1.7,32.9,1.9c11,0.3,22.1,0.1,33.1-0.3l0.2,0c5.1-0.2,9.3,3.8,9.5,8.9c0.2,4.6-3.2,8.6-7.6,9.3
			c-11.3,1.9-22.7,3.7-34.2,4.9c-11.5,1.4-23,2.1-34.6,2.7c-11.6,0.5-23.2,0.5-34.9,0.2c-5.9-0.2-11.7-0.5-17.6-1
			c-6-0.5-11.6-1-18.3-2.1c-10-1.6-16.8-11-15.2-21c1.6-10,11-16.8,21-15.2C749.8,1783.3,750.7,1783.5,751.5,1783.8z"/>
	</g>
	<g>
		<path class="st1" d="M2470.4,1957.8c-0.5,9.1-1.6,17.3-3.1,25.8c-1.4,8.4-3.4,16.8-5.6,25.1c-4.5,16.6-10.7,32.8-18.7,48.4
			c-7.8,15.7-18.3,30.3-30.3,43.6l-9.4,9.7c-3.4,3-6.9,5.8-10.4,8.8l-5.3,4.3l-5.7,3.8l-11.5,7.5c-8.5,5.5-19.8,3.1-25.4-5.4
			s-3.1-19.8,5.4-25.4c0.5-0.3,0.9-0.6,1.4-0.8l1.8-0.9l9.6-5.1l4.9-2.5l4.5-3.1l9.1-6.3l8.4-7.2c10.9-10.1,21-21.5,29.1-34.6
			c8.2-13,15.2-27,20.7-41.7c2.7-7.4,5.2-14.9,7.3-22.5c2.1-7.5,3.8-15.5,5-22.8l0.1-0.5c0.8-5,5.5-8.4,10.4-7.6
			C2467.4,1948.9,2470.6,1953.2,2470.4,1957.8z"/>
	</g>
	<g>
		<path class="st1" d="M2328.6,1801.1c-0.3,0.2-0.6,0.4-0.8,0.6c-0.3,0.2-0.5,0.5-0.5,0.4l-0.1,0c0-0.1,0.1-0.3,0.1-0.5l0.5-1.2
			l1.3-2.6c0.9-1.8,2-3.5,3.1-5.2c2.3-3.4,4.7-6.8,7.8-10.1c3.1-3.3,6.6-6.5,12.3-9.4c2.9-1.3,6.7-2.7,11.9-2.5
			c2.5,0.1,5.4,0.7,7.9,1.9c1.3,0.6,2.4,1.3,3.5,2.1c1,0.6,3.1,2.6,3.9,3.9c0.5,0.7,0.9,1.4,1.4,2.1c0.4,0.7,0.6,1.2,0.9,1.8
			c0.6,1.3,0.8,2.2,1.1,3.3c0.5,2,0.7,3.6,0.9,5.1c0.2,3,0.1,5.4-0.1,7.8c-0.5,4.6-1.3,8.7-2.5,12.7c-2.2,7.9-5.2,15.1-9.4,22.2
			c-2.6,4.5-8.4,5.9-12.9,3.3c-3-1.8-4.7-5-4.6-8.2l0-0.5c0.1-7.3,0.9-14.7,1.5-21.5c0.2-3.4,0.5-6.7,0.5-9.6
			c-0.1-1.4-0.1-2.7-0.2-3.5c0-0.7-0.7-1,1,1.7c0.3,0.5,1.7,1.9,1.9,1.9c0.3,0.3,0.7,0.4,1.1,0.6c0.8,0.4,1.9,0.6,2.5,0.6
			c1.4,0,1.5-0.3,1-0.1c-1.2,0.2-3.6,1.8-6.1,3.5c-2.5,1.8-5.2,3.9-7.9,6.1l-10.9,8.6c-4.2,2.8-9.9,1.7-12.7-2.5
			C2323.3,1809.6,2324.4,1803.9,2328.6,1801.1z"/>
	</g>
	<g>
		<path class="st1" d="M1823,1865.5c1.5,12,1.8,23.2,1,35c-0.8,11.7-2.6,23.5-6.5,35.3c-3.8,11.7-9.8,23.5-18.8,33.8
			c-4.5,5.1-9.9,9.6-15.7,13.5c-5.8,3.9-12.2,6.8-18.7,9.1l-0.2,0.1c-9.5,3.5-20.1-1.5-23.5-11c-3.5-9.5,1.5-20.1,11-23.5
			c0.9-0.3,1.9-0.6,2.8-0.8c7.9-1.5,15.2-4.7,21.6-10c6.3-5.4,11.8-12.7,16-21.3c4.3-8.5,7.2-18.2,9.3-28.2
			c2.1-9.9,3.3-20.6,3.4-30.4l0-0.5c0.1-5.1,4.2-9.1,9.3-9C1818.6,1857.5,1822.4,1861,1823,1865.5z"/>
	</g>
	<g>
		<path class="st1" d="M1684,1850.9c-0.9,10.5-0.8,21.8,0.1,32.6c0.9,10.8,2.7,21.4,5.8,31.3c3,9.8,7.3,18.9,12.9,25.8
			c2.8,3.5,5.9,6.5,9.2,8.9c3.4,2.4,7,4.2,10.8,5.7c9.5,3.6,14.2,14.2,10.6,23.7c-3.6,9.5-14.2,14.2-23.7,10.6
			c-0.7-0.3-1.4-0.6-2.1-1l-0.2-0.1c-6.5-3.5-12.7-7.9-18-13c-5.3-5.2-9.7-11-13.3-17c-7.2-12.1-11-25-13.1-37.5
			c-2.1-12.6-2.5-24.9-1.9-37.1c0.6-12.2,2.1-23.8,4.7-36.1c1.1-4.9,6-8.1,10.9-7c4.5,1,7.5,5.2,7.2,9.7L1684,1850.9z"/>
	</g>
	<g>
		<path class="st1" d="M2561.1,2081.4c8.4,2.3,18.1,3.8,27.1,4.4c9.2,0.6,18.2,0.1,26.7-1.4c8.5-1.7,16.2-4.7,22.8-8.7
			c6.7-4,11.8-9.7,16.3-15.6l0.7-0.9c6.2-8,17.7-9.5,25.8-3.3c8,6.2,9.5,17.7,3.3,25.8c-0.5,0.6-1.1,1.3-1.7,1.9
			c-8.8,8.7-18.9,16.4-30.2,20.9c-11.3,4.6-22.9,6.9-34.2,7.3c-11.3,0.3-22.2-1-32.8-3.2c-10.6-2.4-20.4-5.4-30.6-10
			c-4.6-2.1-6.6-7.5-4.6-12.1c1.9-4.2,6.5-6.2,10.8-5.1L2561.1,2081.4z"/>
	</g>
	<g>
		<path class="st1" d="M2582.4,1952.4c9.5-3,18.5-4.9,28.1-6.2c9.5-1.2,19.4-1.7,29.6-0.7c10.2,1,20.8,3.5,31.1,8.9
			c5.1,2.7,10,6.2,14.4,10.3c4.4,4.2,8.2,9,11.4,14.2l0.2,0.4c5.3,8.6,2.7,20-6,25.3c-8.6,5.3-20,2.7-25.3-6c-0.6-0.9-1.1-2-1.5-2.9
			c-1.1-2.7-2.3-5.2-4-7.6c-1.7-2.3-3.8-4.5-6.2-6.5c-5-3.9-11.5-7.1-18.9-9.1c-7.4-2.1-15.4-3.1-23.7-3.5
			c-8.2-0.3-16.9,0.1-24.8,1.1l-0.6,0.1c-5,0.7-9.6-2.8-10.3-7.8C2575.5,1957.9,2578.3,1953.7,2582.4,1952.4z"/>
	</g>
	<g class="st9">
		<path class="st6" d="M2066.5,1920.3c13.7,67.8,83.1,133.7,176,99.4c71.2-26.4-54.1-47.7-107.2-103.3
			C2098.4,1877.6,2053.7,1856.8,2066.5,1920.3z"/>
	</g>
	<g class="st9">
		<path class="st6" d="M1986.9,1417.9c-3.5,0,14.5,49.5,3.8,113.5c-4.7,28.2,47.4-3,42-51.4
			C2027.8,1437.3,1990.4,1417.9,1986.9,1417.9z"/>
	</g>
	<g>
		<g>
			<path class="st7" d="M677,1374.9c-56.4,0-100.8-12.9-132.5-38.5c-101.8-82.2-97.3-220.2-85.5-295.1c0.2-1.6,0.4-2.8,0.5-3.6
				c0.1-0.6,0.2-1.4,0.3-2.2c6.1-39.6,33.2-73.6,70.8-88.9c25.7-10.4,54.6-17.9,85.8-22.3c101.1-14.2,202.4-10,278,11.5
				c47.4,13.5,82.5,53.8,89.3,102.6l15.1,107.8c11.6,82.7-37.2,162.1-116,188.8c-50.8,17.2-98.5,29-141.7,35
				C718.3,1373.3,696.9,1374.9,677,1374.9z M733.5,943.5c-36.7,0-75,2.7-113.4,8c-29,4.1-55.7,11-79.3,20.6
				c-28.7,11.6-49.4,37.5-54,67.4l-0.2,1.5c-0.1,1.1-0.4,2.5-0.7,4.5c-10.8,69.1-15.4,196,75.7,269.5c36.7,29.7,95.8,39,175.6,27.8
				c41.5-5.8,87.5-17.2,136.7-33.8c66.3-22.4,107.4-89.3,97.6-159l-15.1-107.8c-5.3-38.1-32.7-69.5-69.6-80
				C843.1,949.8,790.2,943.5,733.5,943.5z"/>
		</g>
		<g>
			<path class="st12" d="M1908.8,1011.5c1.3,56.8-10.5,119-50,175.2c-72.7,103.4-237.6,119.2-369.1,113
				c-90.9-4.3-168.1-63-198.8-145.5c-5.6-15-9.6-30.8-12-47.2l-17.6-125.3c-9.4-4.3-19.1-7.8-28.9-10.6c-29.9-8.7-61-10.8-91.1-6.5
				c-30.2,4.2-59.5,14.8-85.8,31.4c-8.6,5.4-16.9,11.5-24.8,18.2l17.6,125.3c2.3,16.4,2.8,32.7,1.5,48.7
				c-6.8,87.7-64.9,165.4-151.1,194.6c-124.7,42.1-287.5,72.3-385.9-7.1c-53.4-43.1-81.8-99.7-96.2-154.7
				c-20.2-77.3-12.8-151.5-8.5-180.9l0,0c1.3-8.5,2.3-13.3,2.3-13.3s-62.2-53.8-1.5-92c102.6-64.5,449.9-118.5,611.8,7.6
				c64.2-54.4,153.9-67,230.6-32.4c121-165.8,469.8-209.4,586.1-175.6c68.9,20,23.9,88.9,23.9,88.9s2.3,4.3,5.8,12.2l0,0
				C1879.5,862.3,1907,931.6,1908.8,1011.5z"/>
		</g>
		<g>
			<path class="st13" d="M416.7,1220.8l633.2-32.8c-6.8,87.7-64.9,165.4-151.1,194.6c-124.7,42.1-287.5,72.3-385.9-7.1
				C459.5,1332.3,431.1,1275.8,416.7,1220.8z"/>
		</g>
		<g>
			<path class="st13" d="M1908.8,1011.5c1.3,56.8-10.5,119-50,175.2c-72.7,103.4-237.6,119.2-369.1,113
				c-90.9-4.3-168.1-63-198.8-145.5L1908.8,1011.5z"/>
		</g>
		<g>
			<path class="st14" d="M1861.4,823c0,0,2.3,4.3,5.8,12.2l0,0l-486.8,104.2c-70,15-141.3,21.6-212.9,23c-8.7,0.2-17.4,0.9-26,2.1
				c-8.6,1.2-17.2,2.9-25.6,5.2c-69.2,18.3-139.6,31.6-211,36.5l-496.7,33.8l0,0c1.3-8.5,2.3-13.3,2.3-13.3s-62.2-53.8-1.5-92
				c102.6-64.5,449.9-118.5,611.8,7.6c64.2-54.4,153.9-67,230.6-32.4c121-165.8,469.8-209.4,586.1-175.6
				C1906.4,754.1,1861.4,823,1861.4,823z"/>
		</g>
		<g>
			<path class="st12" d="M985.1,1148.2c10.7,76.2-34.2,149.3-106.8,173.9c-50.1,16.9-96.9,28.5-139.2,34.4
				c-83.7,11.7-146.3,1.4-186.1-30.7c-117.3-94.7-82-270.9-80-286.2c0.1-0.6,0.2-1.3,0.3-2c5.4-35.2,29.4-64.7,62.4-78.1
				c20.6-8.4,47.9-16.6,82.5-21.5c84.8-11.9,188.8-12.7,272.3,11.1c42.2,12,73.4,47.8,79.5,91.3L985.1,1148.2z"/>
		</g>
		<g>
			<path class="st1" d="M677.3,1438.5c-64.4,0-125.6-14.1-173-52.4c-141.2-114-115.8-313.1-108.7-354.9c-10-10.4-28.9-34-26.8-60.6
				c1.4-18.9,12.5-34.9,32.8-47.7c57.4-36.1,174.1-64.2,290.3-69.8c80.9-3.9,229,0.5,328.5,71.6c64.3-49.4,151-61.6,226.5-31.8
				c76.1-95.8,217.3-140.7,296.1-159.2c113.3-26.6,233.2-31.7,298.3-12.8c23.1,6.7,38.2,19.1,44.7,36.9c9.3,25.1-2.4,52.9-9.1,65.7
				c18.4,38.2,97.6,222.7-6.9,371.1c-77,109.4-249.6,125-380.9,118.8c-113.7-5.4-207.8-91.4-223.7-204.5l-16.5-117.7
				c-33.4-13.6-69.8-18.2-105.6-13.1c-35.8,5-69.5,19.4-97.9,41.7l16.5,117.7c15.9,113.1-50.9,221.7-158.8,258.2
				C835.5,1418.5,754.2,1438.5,677.3,1438.5z M735.3,879.8c-132.9,0-264.7,32.1-319.1,66.3c-12.7,8-19.3,16.7-20.1,26.5
				c-1.4,17.8,16.4,37.5,23.3,43.5c3.7,3.3,5.4,8.3,4.4,13.2c-0.5,2.2-44.1,221,97.7,335.4c94.4,76.2,254.9,44.7,372.9,4.8
				c95.4-32.2,154.4-128.3,140.4-228.4l-17.6-125.3c-0.7-4.7,1.1-9.3,4.7-12.4c33.5-28.3,74.2-46.6,117.6-52.6
				c43.4-6.1,87.5,0.2,127.5,18.3c4.3,1.9,7.3,5.9,8,10.6l17.6,125.3c14,100.1,97.2,176.2,197.8,180.9
				c124.4,5.9,287.4-7.9,357.2-107.2c104.9-149.1,2.6-347.4,1.6-349.4c-2.3-4.4-2.1-9.7,0.6-13.9l0,0c5-7.8,16.7-31.6,10.4-48.3
				c-3.4-9.2-12.2-15.8-26.6-20c-110-31.9-454.2,10.2-571.2,170.6c-3.8,5.2-10.8,7.1-16.7,4.4c-71.5-32.3-156.3-20.3-216.1,30.3
				c-5,4.2-12.2,4.3-17.3,0.4C943.6,899.4,839.1,879.8,735.3,879.8z M677,1374.9c-56.4,0-100.8-12.9-132.5-38.5
				c-101.8-82.2-97.3-220.2-85.5-295.1c0.2-1.6,0.4-2.8,0.5-3.6c0.1-0.6,0.2-1.4,0.3-2.2c6.1-39.6,33.2-73.6,70.8-88.9
				c25.7-10.4,54.6-17.9,85.8-22.3c101.1-14.2,202.4-10,278,11.5c47.4,13.5,82.5,53.8,89.3,102.6l15.1,107.8
				c11.6,82.7-37.2,162.1-116,188.8c-50.8,17.2-98.5,29-141.7,35C718.3,1373.3,696.9,1374.9,677,1374.9z M733.5,943.5
				c-36.7,0-75,2.7-113.4,8c-29,4.1-55.7,11-79.3,20.6c-28.7,11.6-49.4,37.5-54,67.4l-0.2,1.5c-0.1,1.1-0.4,2.5-0.7,4.5
				c-10.8,69.1-15.4,196,75.7,269.5c36.7,29.7,95.8,39,175.6,27.8c41.5-5.8,87.5-17.2,136.7-33.8c66.3-22.4,107.4-89.3,97.6-159
				l-15.1-107.8c-5.3-38.1-32.7-69.5-69.6-80C843.1,949.8,790.2,943.5,733.5,943.5z M1538.2,1250.7c-14.9,0-30.3-0.4-46-1.1
				c-83.1-3.9-151.8-66.8-163.4-149.6l-15.1-107.8c-6.8-48.8,15.8-97.2,57.6-123.2c66.7-41.4,162.9-73.3,264.1-87.5
				c31.2-4.4,61-5.1,88.6-2.1c40.3,4.3,75.7,29.5,92.4,65.8c0.4,1,0.8,1.7,1,2.4c0.2,0.5,0.7,1.6,1.4,3.1
				c31.9,68.8,74.2,200.2-1,307.2l0,0c-31.7,45.1-92.2,74.2-179.8,86.5C1607.5,1248.5,1574.1,1250.7,1538.2,1250.7z M1689.6,804.9
				c-16.2,0-33.1,1.2-50.5,3.7c-97.5,13.7-189.8,44.2-253.4,83.7c-32.6,20.3-50.3,58-44.9,96l15.1,107.8
				c9.8,69.7,67.6,122.7,137.5,126c51.9,2.5,99.2,0.8,140.7-5.1c79.8-11.2,134-36.5,161.2-75.1l0,0c67.3-95.7,28-216.5-1.4-279.9
				c-0.8-1.8-1.5-3.1-1.8-4l-0.7-1.6c-12.6-27.5-39.6-46.6-70.4-49.9C1710.9,805.5,1700.4,804.9,1689.6,804.9z"/>
		</g>
		<g>
			<path class="st1" d="M970,1040.3l15.1,107.8c10.7,76.2-34.2,149.3-106.8,173.9c-42.6,14.4-82.9,25-120,31.4
				c-6.5,1.1-12.9,2.1-19.1,3c-54.4,7.6-100,5.9-136.1-5c-19.4-5.9-36.1-14.5-50-25.7c-0.7-0.6-1.4-1.2-2.1-1.8
				c-38.3-31.7-60-72.3-71.7-112.8c-23.4-80.8-7.5-161.5-6.2-171.7c0.1-0.6,0.2-1.3,0.3-2c5.4-35.2,29.4-64.7,62.4-78.1
				c20.6-8.4,47.9-16.6,82.5-21.5c22.9-3.2,47.2-5.6,72.2-6.9c50.1-2.7,102.6-1,151.4,7.2c16.8,2.8,33.1,6.4,48.8,10.9
				c4.3,1.2,8.5,2.7,12.6,4.4C938.9,968.5,964.5,1001.3,970,1040.3z"/>
		</g>
		<g class="st15">
			<path class="st6" d="M841.8,938.2L550.9,1324c-38.3-31.7-60-72.3-71.7-112.8L690.4,931C740.5,928.4,793,930.1,841.8,938.2z"/>
		</g>
		<g class="st15">
			<path class="st6" d="M970,1040.3l3.8,27.3l-215.5,285.9c-6.5,1.1-12.9,2.1-19.1,3c-54.4,7.6-100,5.9-136.1-5l300-397.9
				C938.9,968.5,964.5,1001.3,970,1040.3z"/>
		</g>
		<g>
			<path class="st1" d="M677,1374.9c-56.4,0-100.8-12.9-132.5-38.5c-101.8-82.2-97.3-220.2-85.5-295.1c0.2-1.6,0.4-2.8,0.5-3.6
				c0.1-0.6,0.2-1.4,0.3-2.2c6.1-39.6,33.2-73.6,70.8-88.9c25.7-10.4,54.6-17.9,85.8-22.3c101.1-14.2,202.4-10,278,11.5
				c47.4,13.5,82.5,53.8,89.3,102.6l0,0l15.1,107.8c11.6,82.7-37.2,162.1-116,188.8c-50.8,17.2-98.5,29-141.7,35
				C718.3,1373.3,696.9,1374.9,677,1374.9z M733.5,943.5c-36.7,0-75,2.7-113.4,8c-29,4.1-55.7,11-79.3,20.6
				c-28.7,11.6-49.4,37.5-54,67.4l-0.2,1.5c-0.1,1.1-0.4,2.5-0.7,4.5c-10.8,69.1-15.4,196,75.7,269.5c36.7,29.7,95.8,39,175.6,27.8
				c41.5-5.8,87.5-17.2,136.7-33.8c66.3-22.4,107.4-89.3,97.6-159l-15.1-107.8c-5.3-38.1-32.7-69.5-69.6-80
				C843.1,949.8,790.2,943.5,733.5,943.5z"/>
		</g>
		<g>
			<g>
				<path class="st1" d="M1328,990.1l15.1,107.8c10.7,76.2,74,134.1,150.5,137.8c45,2.1,86.6,1.2,124.1-2.8c6.5-0.7,13-1.5,19.2-2.4
					c54.4-7.6,97.7-21.8,129.5-42.3c17-11,30.8-23.8,41-38.5c0.5-0.8,1-1.5,1.6-2.3c28.1-41.1,37.8-86,37.9-128.2
					c0.3-84.2-37.3-157.3-41.3-166.7c-0.2-0.6-0.5-1.2-0.8-1.9c-14.9-32.3-46.1-54.1-81.5-57.9c-22.1-2.4-50.7-2.8-85.2,2.1
					c-22.9,3.2-46.9,7.6-71.3,13.2c-48.9,11.2-98.9,27.3-143.6,48.5c-15.4,7.3-30.1,15.3-43.9,23.9c-3.8,2.4-7.4,4.9-10.9,7.7
					C1338.2,912.4,1322.5,951.1,1328,990.1z"/>
			</g>
			<g class="st15">
				<path class="st6" d="M1423.2,856.6l385.8,290.8c28.1-41.1,37.8-86,37.9-128.2l-280.1-211.2
					C1517.9,819.3,1467.8,835.4,1423.2,856.6z"/>
			</g>
			<g class="st15">
				<path class="st6" d="M1328,990.1l3.8,27.3l285.9,215.5c6.5-0.7,13-1.5,19.2-2.4c54.4-7.6,97.7-21.8,129.5-42.3l-397.9-300
					C1338.2,912.4,1322.5,951.1,1328,990.1z"/>
			</g>
			<g>
				<path class="st7" d="M1539,1250.6c-14.9,0-30.3-0.4-46-1.1c-83.1-3.9-151.8-66.8-163.4-149.6L1314.4,992l0,0
					c-6.8-48.8,15.8-97.2,57.6-123.2c66.7-41.4,163-73.4,264.1-87.5c31.2-4.4,61-5.1,88.6-2.1c40.3,4.3,75.8,29.5,92.5,65.8
					c0.4,0.9,0.7,1.7,1,2.4c0.2,0.5,0.7,1.6,1.4,3.1c31.9,68.8,74.2,200.2-1,307.2c-31.7,45.1-92.2,74.2-179.8,86.5
					C1608.3,1248.4,1574.9,1250.6,1539,1250.6z M1341.6,988.2l15.1,107.8c9.8,69.7,67.6,122.7,137.5,126
					c51.9,2.5,99.2,0.8,140.7-5.1c79.8-11.2,134-36.5,161.2-75.1c67.3-95.7,28-216.5-1.4-279.9c-0.8-1.8-1.5-3.1-1.8-4l-0.7-1.7
					c-12.6-27.4-39.6-46.5-70.4-49.8c-25.3-2.7-52.9-2-81.9,2c-97.5,13.7-189.8,44.2-253.4,83.7
					C1353.9,912.4,1336.2,950.2,1341.6,988.2L1341.6,988.2z"/>
			</g>
		</g>
		<g>
			<path class="st1" d="M1538.2,1250.7c-14.9,0-30.3-0.4-46-1.1c-83.1-3.9-151.8-66.8-163.4-149.6l-15.1-107.8
				c-6.8-48.8,15.8-97.2,57.6-123.2c66.7-41.4,162.9-73.3,264.1-87.5c31.2-4.4,61-5.1,88.6-2.1c40.3,4.3,75.7,29.5,92.4,65.8
				c0.4,1,0.8,1.7,1,2.4c0.2,0.5,0.7,1.6,1.4,3.1c31.9,68.8,74.2,200.2-1,307.2l0,0c-31.7,45.1-92.2,74.2-179.8,86.5
				C1607.5,1248.5,1574.1,1250.7,1538.2,1250.7z M1689.6,804.9c-16.2,0-33.1,1.2-50.5,3.7c-97.5,13.7-189.8,44.2-253.4,83.7
				c-32.6,20.3-50.3,58-44.9,96l15.1,107.8c9.8,69.7,67.6,122.7,137.5,126c51.9,2.5,99.2,0.8,140.7-5.1
				c79.8-11.2,134-36.5,161.2-75.1l0,0c67.3-95.7,28-216.5-1.4-279.9c-0.8-1.8-1.5-3.1-1.8-4l-0.7-1.6
				c-12.6-27.5-39.6-46.6-70.4-49.9C1710.9,805.5,1700.4,804.9,1689.6,804.9z"/>
		</g>
	</g>
	<g>
		<path class="st1" d="M510.5,1713l-53.8,4c-22.5,1.7-40.4,19.6-42.1,42.1l-4,53.8l-4-53.8c-1.7-22.5-19.6-40.4-42.1-42.1l-53.8-4
			l53.8-4c22.5-1.7,40.4-19.6,42.1-42.1l4-53.8l4,53.8c1.7,22.5,19.6,40.4,42.1,42.1L510.5,1713z"/>
	</g>
	<g>
		<path class="st1" d="M2155.2,547.8l-61.6,4.6c-25.8,1.9-46.3,22.4-48.2,48.2l-4.6,61.6l-4.6-61.6c-1.9-25.8-22.4-46.3-48.2-48.2
			l-61.6-4.6l61.6-4.6c25.8-1.9,46.3-22.4,48.2-48.2l4.6-61.6l4.6,61.6c1.9,25.8,22.4,46.3,48.2,48.2L2155.2,547.8z"/>
	</g>
	<g>
		<path class="st1" d="M334.3,864.6l-33.2,2.5c-13.9,1-25,12.1-26,26l-2.5,33.2l-2.5-33.2c-1-13.9-12.1-25-26-26l-33.2-2.5l33.2-2.5
			c13.9-1,25-12.1,26-26l2.5-33.2l2.5,33.2c1,13.9,12.1,25,26,26L334.3,864.6z"/>
	</g>
</g>
</svg>
