<?xml version="1.0" encoding="utf-8"?>
<!-- Generator: Adobe Illustrator 26.0.3, SVG Export Plug-In . SVG Version: 6.00 Build 0)  -->
<svg version="1.1" id="Layer_1" xmlns="http://www.w3.org/2000/svg" xmlns:xlink="http://www.w3.org/1999/xlink" x="0px" y="0px"
	 viewBox="0 0 1000 1000" style="enable-background:new 0 0 1000 1000;" xml:space="preserve">
<style type="text/css">
	.st0{fill:#000;}
</style>
<path class="st0" d="M366.7,196.6c5,0,10,0,15,0c2.1,2.5,4.2,5,6.9,8.3c-66.8,20.4-129,46.9-182.8,90.1
	c189.7-89.2,379.2-93.2,569-0.1c-50.9-41.1-109.8-66.7-172.5-87.2c3.8-4.2,6.9-7.7,9.9-11.1c4.4,0,8.7,0,13.1,0
	c5.2,0.8,10.4,1.6,15.6,2.4c60.2,9.2,114.8,32.1,164.3,67.4c5.3,3.8,10.2,9.4,13.1,15.2c53.3,109.5,86.4,224.8,96.1,346.5
	c0.9,11.5,2.3,22.9,3.4,34.4c0,10.6,0,21.3,0,31.9c-41.6,56.4-98.1,88.8-165.9,102.4c-13.9,2.8-28.1,4.4-42.1,6.6
	c-4.4,0-8.7,0-13.1,0c-15-19.2-30.1-38.4-45.3-57.8c70.6-28.7,111.2-55.9,126.8-85.1c-86,52.1-178.4,80.9-278.5,79.9
	c-99.6-1-192.6-27.7-278.5-78.9c30.6,42,73.6,65.9,122.6,82.4c-16.8,20.8-32.5,40.2-48.2,59.5c-3.7,0-7.5,0-11.2,0
	c-1.7-0.6-3.4-1.4-5.1-1.7c-21.7-3.9-43.9-6-65-11.9c-53.4-14.9-98.3-43.6-131.9-88.4c-3.4-4.6-5.7-11.3-5.6-17
	c1-48.5,5.6-96.6,14.4-144.4c16.7-90.7,44.7-177.6,85.5-260.2c2-4,5-8.2,8.6-10.8c40.3-29.1,84.2-50.9,132.6-62.8
	C333.7,202.2,350.3,199.8,366.7,196.6z M436.3,542.7c3.2-54.1-53.6-92.6-102.4-71.1c-50.6,22.3-61.5,95.3-20.2,135.2
	c28.6,27.6,72.5,26.5,99.6-2.4C430,586.5,436.6,565,436.3,542.7z M550.9,545.5c1,7.4,1.3,15,3.3,22.1c7.8,28.4,24.6,49.2,53.8,56.8
	c28.2,7.3,52.7-1.3,71.4-23.3c27.3-31.9,26.1-81.5-2.3-112.4c-16.2-17.7-36.7-25.3-60.6-22.4C576.6,471,551.2,507.9,550.9,545.5z"/>
</svg>
