<?xml version="1.0" encoding="utf-8"?>
<!-- Generator: Adobe Illustrator 26.0.3, SVG Export Plug-In . SVG Version: 6.00 Build 0)  -->
<svg version="1.1" id="Layer_2" xmlns="http://www.w3.org/2000/svg" xmlns:xlink="http://www.w3.org/1999/xlink" x="0px" y="0px"
	 viewBox="0 0 1000 1000" style="enable-background:new 0 0 1000 1000;" xml:space="preserve">
<style type="text/css">
	.st0{fill:#000;}
</style>
<g>
	<path class="st0" d="M240.7,166.3c20-9.9,40.9-17.5,62.8-22c10.5-1,21-2,31.4-3c10.5,0.5,20.9,0.7,31.4-0.1
		c10.5,0.7,20.9,0.7,31.4,0c10.5,0.7,21,0.7,31.4,0c10.5,0.7,20.9,0.7,31.4,0c10.5,0.7,21,0.7,31.4,0c10.5,0.7,20.9,0.7,31.4,0
		c10.5,0.7,21,0.7,31.4,0c10.5,0.7,20.9,0.7,31.4,0c10.5,0.7,21,0.7,31.4,0c10.4,0.8,20.9,0.6,31.3,0.1c10.5,1,21,2,31.5,3
		c21.8,4.9,42.8,11.9,62.8,22.1c5.1,3.1,10.3,6.3,15.4,9.4c5.4,4,10.7,8,16.1,12.1c6.8,6.4,13.6,12.8,20.4,19.2
		c3.6,4.2,7.3,8.5,10.9,12.7c4.3,6.2,8.6,12.4,13,18.7c11.6,19.8,20.2,40.8,25.8,63c1.4,10.4,2.9,20.8,4.3,31.2
		c0.3,10.5,0.6,21,0.8,31.5c-0.8,10.4-0.8,20.9,0,31.3c-0.8,10.5-0.8,21,0,31.5c-0.8,10.4-0.8,20.9,0,31.3c-0.8,10.5-0.8,21,0,31.5
		c-0.8,10.4-0.8,20.9,0,31.3c-0.8,10.5-0.8,21,0,31.5c-0.8,10.4-0.8,20.9,0,31.3c-0.8,10.5-0.8,21,0,31.5c-0.8,10.4-0.8,20.9,0,31.3
		c-0.6,10.4-1.2,20.9-1.7,31.3c-2.3,10.4-4.5,20.9-6.8,31.3c-1.9,5.8-3.8,11.6-5.7,17.4c-2,4.7-4.1,9.5-6.1,14.2
		c-6.3,10.5-12.6,20.9-18.9,31.4c-1.6,2.1-3.1,4.1-4.7,6.2c-7.8,8.4-15.7,16.9-23.5,25.3c-2.6,2.2-5.2,4.4-7.8,6.6
		c-19.2,15-40.2,26.7-63,35.3c-10.4,2.7-20.9,5.5-31.3,8.2c-10.5,1-21,2-31.4,3c-10.4-0.5-20.9-0.7-31.3,0.1
		c-10.5-0.8-21-0.8-31.5,0c-10.4-0.8-20.9-0.8-31.3,0c-10.5-0.8-21-0.8-31.5,0c-10.4-0.8-20.9-0.8-31.3,0c-10.5-0.8-21-0.8-31.5,0
		c-10.4-0.8-20.9-0.8-31.3,0c-10.5-0.8-21-0.8-31.5,0c-10.4-0.8-20.9-0.8-31.3,0c-10.5-0.9-21-0.6-31.5-0.1c-10.4-1-20.9-2-31.3-3
		c-10.4-2.7-20.8-5.4-31.3-8.2c-22.8-8.6-43.8-20.3-63-35.2c-2.6-2.2-5.3-4.5-7.9-6.7c-7.8-8.4-15.7-16.8-23.5-25.3
		c-2-2.7-4-5.5-6.1-8.2c-12.6-19-22.7-39.2-29.5-61c-2.2-10.4-4.4-20.8-6.6-31.2c-0.6-10.4-1.1-20.9-1.7-31.3
		c0.8-10.5,0.8-21,0-31.5c0.7-10.4,0.7-20.9,0-31.3c0.8-10.5,0.8-21,0-31.5c0.7-10.4,0.7-20.9,0-31.3c0.8-10.5,0.8-21,0-31.5
		c0.7-10.4,0.7-20.9,0-31.3c0.8-10.5,0.8-21,0-31.5c0.7-10.4,0.7-20.9,0-31.3c0.8-10.5,0.8-21,0-31.5c0.3-10.4,0.5-20.9,0.8-31.3
		c1.4-10.4,2.8-20.8,4.2-31.2c5.5-21.6,13.8-42,24.7-61.4c4.7-6.8,9.4-13.6,14.1-20.4c3.6-4.2,7.2-8.5,10.9-12.7
		c6.9-6.4,13.7-12.8,20.6-19.3c5.3-4,10.7-8,16-12C230.4,172.6,235.6,169.4,240.7,166.3z M492,681.6c9,0.6,18,0.4,26.8-1.9
		c1.6-0.1,3.1-0.3,4.7-0.4c11.5-1.5,22.7-4.2,33.3-9c10.6-3.1,20.5-7.9,29.6-14.1c5.4-2.3,10.1-5.5,14.4-9.4
		c6.5-3.7,12.1-8.5,17.1-14c6.5-5.1,12-11,16.8-17.6c16-18.4,27.1-39.4,34.2-62.6c3.4-10.3,6-20.7,6.7-31.6
		c2.1-10.4,2.2-20.8,1.4-31.4c-0.3-10.7-1.2-21.2-4.4-31.4c-1.4-11-5.2-21.3-9.7-31.4c-3.6-9.1-7.6-17.9-13.5-25.7
		c-0.5-2.3-1.9-4.1-3.6-5.7c-7.4-12.1-16.7-22.7-27.2-32.2c-9.8-9.3-20.3-17.5-32.3-23.9c-4.2-2.9-8.5-5.5-13.4-7
		c-5.6-3.5-11.5-6-18-7.5c-10-4.3-20.4-7.2-31.4-8c-10.3-2.6-20.8-3.4-31.5-2.8c-10.6-0.5-21.1,0.5-31.4,3
		c-22.7,3.3-43.6,11.3-62.9,23.7c-11.2,6.3-21.4,13.7-30.2,23.1c-0.4,0.4-0.9,0.8-1.3,1.2c-10.1,8.7-18.6,18.8-25.6,30.1
		c-13.8,19-22.4,40.2-27.3,63c-2.6,10.3-4.2,20.7-3.8,31.3c-1.8,10.6-0.3,21,1,31.5c1.1,10.7,2.9,21.3,7,31.4
		c4.2,16.9,12,32.1,21.5,46.4c22.3,33.5,51.8,57.9,90.1,71.4c10,4.7,20.6,7.1,31.4,8.8c2.1,0.3,4.2,0.5,6.3,0.8
		C475.1,681.8,483.5,682.1,492,681.6z M680.5,262.6c-6.8,0.2-13.2,1.7-18.8,5.7c-5.4,2.3-9.5,6-12.6,11c-5.8,6.1-8.5,13.6-9.1,21.9
		c-1.3,10.4,0.5,20,7.1,28.4c0.7,1,1.4,2,2.1,3c7.8,10.6,18.4,15.9,31.4,16.4c26,2.2,47.9-20.9,45.3-47.8
		c-0.6-11.1-5.2-20.1-13.8-27.1c-1.5-2.2-3.3-3.8-6-4.5C698.5,263.8,689.9,261.8,680.5,262.6z"/>
	<path class="st0" d="M396.8,570.4c-3.6-5.9-7.2-11.7-10.8-17.6c-3.9-9.6-7.7-19.3-10-29.5c-1.7-10.4-2.4-20.9-2.6-31.4
		c2-10.5,4.1-21,6.1-31.5c4.6-10.8,9.8-21.3,16.1-31.2c0.4-0.5,0.8-1.1,1.2-1.6c17.2-21.4,38.8-36,65.3-43.6
		c9.6-1.3,19.3-2.6,28.9-3.8c10.5,0.4,20.9,2,31.2,3.8c10.9,3.6,21.5,7.9,31.6,13.3c1,0.6,2.1,1.3,3.1,1.9
		c9.6,7,18.4,14.9,26.6,23.6c2.1,2.7,4.2,5.4,6.2,8.2c5.6,9.5,10.8,19.1,14.7,29.4c3,10.3,5,20.8,6.2,31.5c0.1,10.5-0.8,20.9-2,31.3
		c-3.1,10.7-6.6,21.1-11.2,31.3c-4.1,6.3-8.2,12.5-12.2,18.8c-3.8,4.2-7.7,8.3-11.5,12.5c-6.6,4.9-13.2,9.9-19.7,14.8
		c-19.5,11.2-40.5,16.6-62.9,17.1c-6.8-0.6-13.6-1.1-20.4-1.7c-22.3-5.2-42.4-14.8-59.7-29.9C406.2,580.9,401.5,575.7,396.8,570.4z"
		/>
</g>
</svg>
