<?xml version="1.0" encoding="utf-8"?>
<!-- Generator: Adobe Illustrator 26.5.0, SVG Export Plug-In . SVG Version: 6.00 Build 0)  -->
<svg version="1.1" id="Layer_1" xmlns="http://www.w3.org/2000/svg" xmlns:xlink="http://www.w3.org/1999/xlink" x="0px" y="0px"
	 viewBox="0 0 500 500" style="enable-background:new 0 0 500 500;" xml:space="preserve">
<style type="text/css">
	.st0{fill:#ff6289}
	.st1{fill:none;stroke:#000000;stroke-width:3;stroke-linecap:round;stroke-linejoin:round;stroke-miterlimit:10;}
	.st2{fill:#FFFFFF;}
</style>
<path class="st0" d="M245.6,397c-57.9-3.5-108.9-26.6-138.2-85c-15-29.8-16-61.2-4.9-92.7c3.5-10.1,4-19.9,1.5-30
	c-6.7-27.9-13.5-55.8-20.2-83.7c-0.9-3.8-2.4-8,1.2-11.3c3.6-3.4,7.1-0.5,10.4,0.6c30.7,10.3,61.5,20.6,92.1,31.2
	c7.9,2.7,15.6,3.4,23.6,1.4c25.7-6.4,51.3-6.3,77.1-0.4c7.3,1.7,14.6,1.3,21.9-1.2c30.4-10.4,60.8-20.7,91.3-30.8
	c12.4-4.1,15.2-1.4,12.7,11.4c-5.2,26.3-10.2,52.7-15.5,79.1c-2.9,14.5-2.5,28.4,2,42.9c13.9,45.4-4.7,99-44.2,131.1
	C325.4,384.6,289.7,396,245.6,397z M324.7,143.8c21.6,11.4,39.7,25.2,53.2,45.8c4-13.4,7.2-25.3,7.3-37.7
	c0.1-14.3-6.3-20.7-20.3-20.1C351,132.3,338.5,137.6,324.7,143.8z M121.8,190.2c13.7-21.5,32-34.9,53.4-46.4
	c-14.4-6.4-27.2-11.8-41.4-12.1c-12.6-0.2-18.6,5.8-19,18.6C114.4,163.4,118.3,175.6,121.8,190.2z"/>
<g>
	<g>
		<line class="st1" x1="212.5" y1="319" x2="126.6" y2="333"/>
		<line class="st1" x1="212.5" y1="298" x2="126.6" y2="284.1"/>
		<line class="st1" x1="212.3" y1="308.5" x2="121.7" y2="308.5"/>
	</g>
	<g>
		<line class="st1" x1="285.1" y1="298" x2="371" y2="284.1"/>
		<line class="st1" x1="285.1" y1="319" x2="371" y2="333"/>
		<line class="st1" x1="285.3" y1="308.5" x2="376" y2="308.5"/>
	</g>
</g>
<path d="M232.5,281.3c0-9.3,7.5-4.3,16.8-4.3c9.3,0,16.8-5,16.8,4.3c0,9.3-7.5,16.8-16.8,16.8C240,298.1,232.5,290.5,232.5,281.3z"
	/>
<ellipse class="st2" cx="321.9" cy="240.4" rx="36.6" ry="25"/>
<ellipse cx="317.5" cy="240.4" rx="32.2" ry="25"/>
<ellipse class="st2" cx="316.4" cy="220.5" rx="7.9" ry="4"/>
<ellipse class="st2" cx="173.3" cy="240.4" rx="36.6" ry="25"/>
<ellipse cx="177.8" cy="240.4" rx="32.2" ry="25"/>
<ellipse class="st2" cx="176.7" cy="220.5" rx="7.9" ry="4"/>
<g>
	<path class="st1" d="M229.2,314c14.1-1.1,18.6-8.1,18.7-17.8"/>
	<path class="st1" d="M269.4,314c-14.1-1.1-18.6-8.1-18.7-17.8"/>
</g>
</svg>
