<?xml version="1.0" encoding="utf-8"?>
<!-- Generator: Adobe Illustrator 26.3.1, SVG Export Plug-In . SVG Version: 6.00 Build 0)  -->
<svg version="1.1" id="Layer_2_00000039097548707837754560000004601885677269268622_"
	 xmlns="http://www.w3.org/2000/svg" xmlns:xlink="http://www.w3.org/1999/xlink" x="0px" y="0px" viewBox="0 0 1000 1000"
	 style="enable-background:new 0 0 1000 1000;" xml:space="preserve">
<style type="text/css">
	.st0{fill:#000;}
</style>
<g>
	<path class="st0" d="M369,206c19.1,5,38,9.7,56.8,14.9c34.2,9.5,34.2,9.6,35.6-25.5c0.9-24.3,14.8-40,35.2-39.9
		c20.2,0.2,34.3,16.6,34.6,40.4c0.1,6.3,0.9,12.7-0.1,18.7c-3.9,22.9,5.2,36.8,23.9,51.3c50,38.9,93.5,84.3,120.7,143.2
		c19.1,41.6,16.6,81.4-5.9,120.5C649.5,564.8,623,595,593.7,623c-10,9.5-21.4,5.7-32.3,5.9c-30.1,0.6-30.1,0.2-30.1,29.2
		c0,39.7,0.1,37.6,39.7,40.3c39.4,2.7,69.9-10,94.2-40c11.6-14.3,26.5-21.4,44.2-26.2c50.9-13.7,101.5-28.7,152-44
		c13.2-4,18.1-1.2,17.2,12.5c-0.5,7.9-0.3,15.9-0.1,23.9c0.2,6.5-2.4,10.9-8.6,13.1c-49.4,17.7-77.3,57.1-102.3,100
		c-16.9,28.9-35.1,57-62.2,78c-18.2,14.1-38.6,21.4-61.5,21.4c-106.3,0-212.6,0.6-318.9-0.1c-109-0.8-200.9-90.5-203.4-196.4
		c-0.4-15.4,4.2-19.1,19.1-18.8c50.6,0.9,101.2,0.6,151.8,0.2c11.8-0.1,17.9,1,18.4,16.1c1.2,33.8,28.6,58.9,62.6,59.6
		c25,0.6,50-0.2,75,0.3c9.1,0.2,13.7-2.1,13.2-12.2c-0.6-14.8-0.6-29.6,0-44.3c0.4-10-3.9-12.6-13.1-12.4
		c-21.6,0.4-43.2,0.1-64.8,0.1c-5.1,0-11.3,0.9-13.8-4.3c-2.1-4.5,2.6-8.3,5.1-11.9c15.6-23.1,29.2-47.3,42.7-71.7
		c31.4-57.1,29.3-116.4,12.7-176.8c-13.7-50-33-97.7-57.7-143.3C370.5,217.3,367.5,213.5,369,206z"/>
	<path class="st0" d="M252.4,553.4c-23.8,0-47.7,0.2-71.5-0.1c-16.1-0.2-18.1-3.4-9.9-16.4c50.7-79.9,101.7-159.6,152.6-239.4
		c5.6-8.8,11.5-14,17.1-0.1c19.6,48.4,38.5,96.8,38.1,150.5c-0.3,38.5-20.7,68.7-38.1,100.3c-3.3,6-9.6,5.1-15.2,5.1
		C301.2,553.5,276.8,553.4,252.4,553.4z"/>
</g>
</svg>
