<?xml version="1.0" encoding="utf-8"?>
<!-- Generator: Adobe Illustrator 26.0.3, SVG Export Plug-In . SVG Version: 6.00 Build 0)  -->
<svg version="1.1" id="Layer_2" xmlns="http://www.w3.org/2000/svg" xmlns:xlink="http://www.w3.org/1999/xlink" x="0px" y="0px"
	 viewBox="0 0 1000 1000" style="enable-background:new 0 0 1000 1000;" xml:space="preserve">
<style type="text/css">
	.st0{fill:#000;}
</style>
<path class="st0" d="M909.4,246.6c2.4,0,5-3.4,6.6-1.4c1.8,2.2-2.3,4-2.8,6.5c-1.2,1.7-2.5,3.4-3.7,5.2c-3.8,4.9-7.7,9.8-11.5,14.7
	c-10.1,11.5-20.5,22.6-31.5,33.3c-2.6,2.1-5.3,4.1-7.4,6.7c-4.2,3.5-8.4,7-12.6,10.4c-4.2,3-8.6,5.8-12.1,9.7c-1.1,3-0.4,6,0,9
	c-0.1,10.3-0.1,20.7-0.2,31c-0.8,3.6-0.7,7.3-0.6,11c-0.6,1-0.5,2-0.1,3c-0.6,1.9-0.8,3.9-0.5,5.9c-0.7,6.7-1.4,13.3-2.2,20
	c-0.9,6.6-1.9,13.3-2.8,19.9c-2.8,13.3-5.6,26.6-8.4,40c-1.8,6.6-3.7,13.2-5.5,19.9c-2.1,6.7-4.3,13.4-6.4,20.1
	c-1.2,1.8-1.7,3.9-2,6c-2.3,4.4-3.9,9.1-5.3,13.9c-2.6,6.3-5.3,12.6-7.9,18.8c-6.7,13.7-13.4,27.4-20.1,41.1
	c-8.1,13.3-16.3,26.7-24.4,40c-0.9,1.3-1.8,2.6-2.6,3.9c-3.8,5.4-7.7,10.8-11.5,16.2c-3.1,3.4-6,6.9-8.4,10.8
	c-2.9,2.8-5.3,5.9-7.5,9.2c-7,7.7-13.9,15.5-21,23.1c-16.5,17.7-34.9,33.5-53.7,48.7c-2.8,1.6-5.4,3.5-7.7,5.7
	c-4,2.8-8,5.7-11.9,8.5c-6.4,4.2-12.7,8.3-19.1,12.5c-0.9,0-1.5,0.4-1.9,1.2c-6.3,3.6-12.7,7.3-19,10.9c-5.7,3-11.5,6-17.2,8.9
	c-1.1,0-2,0.6-2.7,1.3c-7.1,3.2-14.2,6.4-21.3,9.6c-12.9,4.8-25.8,9.5-38.7,14.3c-3.5,1-7,2-10.5,2.9c-14.2,3.7-28.4,7.3-42.6,10.9
	c-2.7-0.2-5.4,0.6-8,1.3c-6.7,1.1-13.4,2.1-20.2,3.2c-6.6,0.9-13.2,1.8-19.9,2.6c-6.7,0.5-13.4,1-20,1.5c-1-0.3-2-0.4-2.9,0.2
	c-2-0.5-4-0.2-6,0.3c-3.7,0.1-7.3,0.2-11,0.3c-6.7,0-13.4,0.1-20,0.1c-6-0.1-12-0.3-18-0.4c-7.3-0.5-14.7-1-22-1.5
	c-7-0.8-14-1.7-20.9-2.5c-6.7-1-13.3-2.1-20-3.1c-3.2-1.1-6.6-1.8-10-1.9c-16.7-4.3-33.3-8.6-50-12.9c-6.1-2.5-12.3-4.6-18.7-6.3
	c-0.6-0.8-1.4-1-2.3-0.9c-6.3-2.5-12.7-5-19-7.5c-6.6-2.9-13.2-5.8-19.9-8.7c-1.8-1.2-3.6-2.4-5.8-2.8c-4.6-2.7-9.3-5.2-14.2-7.1
	c-6.7-3.7-13.3-7.5-20-11.2c-1.7-1.6-3.6-2.6-6-2.8c-1.5-3.2-4.9-3.9-7.5-5.6c0.1-0.5,0.1-1,0.2-1.5c1.4,0.1,2.8,0.2,4.1,0.3
	c0.6,0.5,1.3,0.5,2,0.2c2.3,0.8,4.6,0.9,6.9,0.6c6.7,0.8,13.3,1.3,20,0.9c6.7,0.7,13.3,0.4,19.9-0.3c6.7,0.1,13.4-0.1,20.1-1.4
	c2,0.2,4,0.2,5.9-0.5c0.7-0.1,1.4-0.2,2-0.4c4.1,0.1,8.1-0.6,12.1-1.7c13.6-1.6,26.9-4.7,40-8.7c6.7-1.9,13.5-3.6,19.9-6.5
	c14.4-4.5,28.2-10.4,41.4-17.7c13.9-6.7,27-14.6,39.5-23.6c5.5-3.2,10.4-7.2,16.1-11.7c-6.7-0.4-12.4-0.8-18.1-1.2
	c-1.3-0.2-2.7-0.4-4-0.5c-19.1-3.6-37.5-9.5-54.9-18.3c-0.5-1-1.4-1-2.3-1.2c-5.8-3.7-11.7-7.5-17.5-11.2c-3.6-2.8-7.3-5.7-10.9-8.5
	c-3.1-2.9-6.2-5.9-9.4-8.8c-3.5-3.8-7-7.5-10.4-11.3c-2.8-3.6-5.6-7.2-8.4-10.8c-2-3-3.9-6-5.9-9c-6-10.6-11.6-21.3-15.4-32.9
	c-0.5-1.5-2.9-3.5,0.2-5c6.6,1.6,13.2,2.4,20,2.4c17.9,1.7,35.5-0.5,52.9-5.4c-11.3-2.8-22.2-6.7-32.9-10.9
	c-14.2-6.7-27.5-14.9-39.8-24.6c-1.4-1.2-2.8-2.3-4.2-3.5c-5.3-5.3-10.6-10.7-15.9-16c-0.7-1.7-2-2.9-3.4-4
	c-9.7-12.4-17.8-25.8-24.6-40c-5.3-12.9-8.9-26.4-12-39.9c-0.7-6.7-1.4-13.3-2.1-20c0-2.6,0.1-5.2,0.1-7.7c0-1.4,0.1-2.6,2-2.4
	c6.3,3.8,12.9,7,20,9.1c17.2,7.5,35.2,10.4,55.1,11.5c-6.5-4.9-11.7-8.9-16.9-12.9c-5.6-5.6-11.2-11.2-16.8-16.8
	c-0.7-0.8-1.3-1.6-2-2.4c-4.5-6.1-9-12.2-13.5-18.3c-1.9-3.1-3.8-6.3-5.7-9.4c-1.3-3.8-3.2-7.3-5.3-10.6c-2.6-6.7-5.2-13.3-7.8-20
	c-3.4-13.1-6.4-26.3-7.5-39.9c-0.1-6.7-0.2-13.4-0.2-20.1c1-13.5,3.5-26.8,6.6-39.9c2.4-6.6,4.8-13.3,7.2-19.9
	c2.7-5.3,5.3-10.7,8-16c1.8-2.2,2.7-0.3,3.8,0.9c3.5,4.2,7,8.4,10.7,12.5c19.7,22,40.8,42.6,64.5,60.4c0.7,1.1,1.6,1.8,2.9,2.1
	c5.3,4.8,11.1,8.9,17.1,12.8c3.3,2.8,6.8,5.3,10.7,7.3c2.8,2.4,5.8,4.5,9.2,5.9c5.8,4.4,12,8,18.5,11.3c1.5,1.4,3.2,2.3,5.1,2.8
	c4.7,3.3,9.8,5.8,15,8.1c7.1,4.3,14.6,7.7,22.4,10.7c0.9,1,2.1,1.3,3.3,1.4c5.3,3,10.8,5.2,16.6,6.9c6.4,3.2,13.2,5.5,20.1,7.5
	c13,5,26.4,8.9,40,12c6.5,2,13.2,3.4,19.9,4.5c6.6,1.8,13.3,3,20.1,3.7c6.6,1.5,13.2,2.5,20,2.9c6.6,1.3,13.3,1.8,20,2
	c3.6,0.3,7.2,0.6,10.8,1c1.8,0.2,2.8-0.1,2.4-2.3c-1.2-6.1-2.2-12.3-3.3-18.4c-0.3-6.7-0.6-13.3-0.9-20c0.5-6.6,1-13.2,1.5-19.8
	c1.2-6.7,2.4-13.4,3.6-20c2.1-6.6,4.3-13.3,6.4-19.9c1.4-1.8,1.9-3.8,1.7-6c3.7-3.5,4.7-8.5,7-12.8c8.5-15.1,18.8-28.8,30.8-41.3
	c0.3-0.3,0.7-0.6,1-1c12.2-11.3,25.6-20.8,40-29c12.9-6.2,26.2-11.1,40-14.9c6.7-1.1,13.3-2.3,20-3.4c1.7,0.3,3.3,0.1,4.9-0.5
	c1.1,0.4,2.1,0.4,3-0.2c4-0.1,8-0.2,12-0.3c6.7,0.4,13.4,0.7,20,1.1c7.6,1.5,15.3,2.9,22.9,4.4c13.8,4.1,27.1,9.5,39.9,16
	c14.4,8.9,28.2,18.7,39.8,31.2c1,1.1,2.1,1.3,3.5,0.9c4.3-1.1,8.6-2.2,12.9-3.2c1.4,0,2.8,0.1,3.9-1c6.9-1.1,13.6-3.3,20.1-5.7
	c13.8-4.2,27.2-9.1,40-15.8c7-2.8,13.7-6.2,20-10.2c2.6-1.2,5.1-2.4,7.7-3.6c0.3,0.2,0.5,0.4,0.8,0.7c-1.7,4.8-3.3,9.6-5,14.3
	c-1.7,2.6-3,5.5-4,8.4c-2.2,3.9-4.4,7.8-6.6,11.7c-4.6,6.4-9.2,12.9-13.8,19.3c-5.8,6.2-11.6,12.3-17.3,18.5
	c-6.7,5.1-13.4,10.2-20.1,15.4c-1.6,1.2-5.1,2-4.4,3.8c1,2.4,3.7-0.1,5.6-0.3c12.8-1.7,25.5-4.1,38-7.9
	C881.9,257.2,895.8,252.5,909.4,246.6z"/>
</svg>
